<?xml version="1.0" encoding="UTF-8" standalone="no"?>
<svg
   xmlns:dc="http://purl.org/dc/elements/1.1/"
   xmlns:cc="http://creativecommons.org/ns#"
   xmlns:rdf="http://www.w3.org/1999/02/22-rdf-syntax-ns#"
   xmlns:svg="http://www.w3.org/2000/svg"
   xmlns="http://www.w3.org/2000/svg"
   xmlns:sodipodi="http://sodipodi.sourceforge.net/DTD/sodipodi-0.dtd"
   xmlns:inkscape="http://www.inkscape.org/namespaces/inkscape"
   width="214.84633pt"
   height="186.68082pt"
   viewBox="0 0 214.84632 186.68082"
   version="1.1"
   id="svg4585"
   sodipodi:docname="aaf-no-text.svg"
   inkscape:version="0.92.3 (2405546, 2018-03-11)">
  <metadata
     id="metadata4591">
    <rdf:RDF>
      <cc:Work
         rdf:about="">
        <dc:format>image/svg+xml</dc:format>
        <dc:type
           rdf:resource="http://purl.org/dc/dcmitype/StillImage" />
        <dc:title></dc:title>
      </cc:Work>
    </rdf:RDF>
  </metadata>
  <defs
     id="defs4589" />
  <sodipodi:namedview
     pagecolor="#ffffff"
     bordercolor="#666666"
     borderopacity="1"
     objecttolerance="10"
     gridtolerance="10"
     guidetolerance="10"
     inkscape:pageopacity="0"
     inkscape:pageshadow="2"
     inkscape:window-width="1853"
     inkscape:window-height="1145"
     id="namedview4587"
     showgrid="false"
     inkscape:pagecheckerboard="true"
     inkscape:zoom="3.4040497"
     inkscape:cx="61.152239"
     inkscape:cy="122.33142"
     inkscape:window-x="1987"
     inkscape:window-y="27"
     inkscape:window-maximized="1"
     inkscape:current-layer="svg4585" />
  <g
     id="g4979"
     transform="translate(-139.42983,-9.1852539)">
    <path
       style="fill:#ffffff;fill-opacity:1;fill-rule:nonzero;stroke:none"
       d="m 155.94531,55.789062 c -0.51562,1.492188 -2.63281,2.324219 -4.72656,1.859376 L 148.26953,57 c -2.09766,-0.464844 -3.37109,-2.027344 -2.84766,-3.488281 l 0.73829,-2.054688 c 0.51953,-1.464843 2.64062,-2.296875 4.73046,-1.863281 l 2.94141,0.613281 c 2.08984,0.433594 3.35938,1.992188 2.84375,3.480469 z m 0,0"
       id="path4224"
       inkscape:connector-curvature="0" />
    <path
       style="fill:#ffffff;fill-opacity:1;fill-rule:nonzero;stroke:none"
       d="m 153.03516,64.167969 c -0.51563,1.492187 -2.64063,2.296875 -4.73829,1.800781 l -2.95703,-0.695312 c -2.10156,-0.5 -3.3789,-2.085938 -2.85547,-3.546876 l 0.73829,-2.058593 c 0.51953,-1.460938 2.64062,-2.269531 4.73828,-1.800781 l 2.94922,0.65625 c 2.09375,0.46875 3.375,2.054687 2.85546,3.542968 z m 0,0"
       id="path4226"
       inkscape:connector-curvature="0" />
    <path
       style="fill:#ffffff;fill-opacity:1;fill-rule:nonzero;stroke:none"
       d="m 150.125,72.550781 c -0.51953,1.488281 -2.64453,2.269531 -4.74609,1.738281 l -2.96875,-0.746093 c -2.10547,-0.527344 -3.38672,-2.144531 -2.86329,-3.605469 l 0.73438,-2.054688 c 0.52344,-1.464843 2.65234,-2.242187 4.75,-1.742187 l 2.95703,0.703125 c 2.10156,0.5 3.38281,2.113281 2.86719,3.605469 z m 0,0"
       id="path4228"
       inkscape:connector-curvature="0" />
    <path
       style="fill:#ffffff;fill-opacity:1;fill-rule:nonzero;stroke:none"
       d="m 170.59375,49.769531 c -0.51172,1.523438 -2.62109,2.410157 -4.71094,1.980469 l -2.9414,-0.605469 c -2.08985,-0.433593 -3.36329,-1.988281 -2.84375,-3.484375 l 0.72656,-2.105468 c 0.51953,-1.496094 2.625,-2.382813 4.71094,-1.980469 l 2.93359,0.566406 c 2.08203,0.398437 3.35937,1.957031 2.84766,3.484375 z m 0,0"
       id="path4230"
       inkscape:connector-curvature="0" />
    <path
       style="fill:#ffffff;fill-opacity:1;fill-rule:nonzero;stroke:none"
       d="m 167.71484,58.335938 c -0.51562,1.519531 -2.625,2.382812 -4.72265,1.917968 l -2.94922,-0.648437 c -2.09375,-0.464844 -3.3711,-2.054688 -2.85156,-3.546875 l 0.72656,-2.105469 c 0.51562,-1.492187 2.6289,-2.351563 4.71875,-1.921875 l 2.9414,0.613281 c 2.08985,0.433594 3.36719,2.019531 2.85547,3.546875 z m 0,0"
       id="path4232"
       inkscape:connector-curvature="0" />
    <path
       style="fill:#ffffff;fill-opacity:1;fill-rule:nonzero;stroke:none"
       d="m 164.83203,66.898438 c -0.51172,1.523437 -2.62891,2.359374 -4.72656,1.863281 L 157.14844,68.0625 c -2.10157,-0.496094 -3.38282,-2.109375 -2.86719,-3.605469 l 0.73047,-2.101562 c 0.51562,-1.496094 2.63281,-2.328125 4.72656,-1.863281 l 2.94922,0.65625 c 2.09766,0.46875 3.38281,2.082031 2.86719,3.605468 z m 0,0"
       id="path4234"
       inkscape:connector-curvature="0" />
    <path
       style="fill:#ffffff;fill-opacity:1;fill-rule:nonzero;stroke:none"
       d="m 161.95703,75.464844 c -0.51172,1.523437 -2.63672,2.332031 -4.73828,1.800781 L 154.25,76.519531 c -2.10547,-0.53125 -3.39063,-2.167969 -2.875,-3.664062 L 152.10547,70.75 c 0.51562,-1.492188 2.63672,-2.300781 4.73828,-1.800781 l 2.95703,0.707031 c 2.10156,0.496094 3.38672,2.140625 2.87891,3.664062 z m 0,0"
       id="path4236"
       inkscape:connector-curvature="0" />
    <path
       style="fill:#ffffff;fill-opacity:1;fill-rule:nonzero;stroke:none"
       d="m 159.07422,84.03125 c -0.50781,1.523438 -2.63672,2.304688 -4.75,1.742188 l -2.97266,-0.792969 c -2.10937,-0.5625 -3.40234,-2.230469 -2.88281,-3.722657 l 0.72656,-2.105468 c 0.51953,-1.496094 2.64453,-2.273438 4.75,-1.742188 l 2.96485,0.75 c 2.10546,0.535156 3.39843,2.203125 2.89062,3.726563 z m 0,0"
       id="path4238"
       inkscape:connector-curvature="0" />
    <path
       style="fill:#ffffff;fill-opacity:1;fill-rule:nonzero;stroke:none"
       d="m 156.19922,92.597656 c -0.51563,1.523438 -2.64453,2.273438 -4.76563,1.679688 L 148.45703,93.4375 c -2.11719,-0.59375 -3.41406,-2.289062 -2.89453,-3.78125 l 0.72656,-2.109375 c 0.51563,-1.492187 2.64453,-2.242187 4.75781,-1.679687 l 2.97657,0.796874 c 2.10937,0.570313 3.40625,2.261719 2.89453,3.785157 z m 0,0"
       id="path4240"
       inkscape:connector-curvature="0" />
    <path
       style="fill:#ffffff;fill-opacity:1;fill-rule:nonzero;stroke:none"
       d="m 153.31641,101.16406 c -0.50782,1.51953 -2.64844,2.25 -4.76954,1.61719 l -2.98828,-0.88281 c -2.12109,-0.63281 -3.42187,-2.351565 -2.90625,-3.843752 l 0.73047,-2.105469 c 0.51563,-1.492188 2.65235,-2.222657 4.76953,-1.621094 l 2.98047,0.84375 c 2.11719,0.597656 3.42188,2.320313 2.91016,3.84375 z m 0,0"
       id="path4242"
       inkscape:connector-curvature="0" />
    <path
       style="fill:#ffffff;fill-opacity:1;fill-rule:nonzero;stroke:none"
       d="m 182.32812,52.128906 c -0.50781,1.554688 -2.60937,2.46875 -4.69921,2.042969 L 174.6875,53.5625 c -2.08984,-0.429688 -3.37109,-2.015625 -2.85547,-3.542969 l 0.71875,-2.152343 c 0.51172,-1.527344 2.61719,-2.4375 4.69922,-2.039063 l 2.93359,0.5625 c 2.08594,0.402344 3.36328,1.988281 2.85938,3.546875 z m 0,0"
       id="path4244"
       inkscape:connector-curvature="0" />
    <path
       style="fill:#ffffff;fill-opacity:1;fill-rule:nonzero;stroke:none"
       d="m 179.48047,60.878906 c -0.50781,1.558594 -2.61719,2.445313 -4.70703,1.980469 l -2.94922,-0.648437 c -2.09766,-0.464844 -3.37891,-2.082032 -2.86719,-3.605469 l 0.71875,-2.152344 c 0.51172,-1.527344 2.62109,-2.414063 4.71094,-1.980469 l 2.9414,0.609375 c 2.08985,0.433594 3.375,2.050781 2.86719,3.605469 z m 0,0"
       id="path4246"
       inkscape:connector-curvature="0" />
    <path
       style="fill:#ffffff;fill-opacity:1;fill-rule:nonzero;stroke:none"
       d="m 176.63281,69.632812 c -0.50781,1.554688 -2.61719,2.417969 -4.72265,1.917969 l -2.95313,-0.699219 c -2.09766,-0.496093 -3.39062,-2.136718 -2.87891,-3.664062 l 0.72266,-2.152344 c 0.51172,-1.523437 2.62109,-2.386718 4.72266,-1.917968 l 2.94922,0.65625 c 2.09375,0.464843 3.3789,2.109374 2.875,3.664062 z m 0,0"
       id="path4248"
       inkscape:connector-curvature="0" />
    <path
       style="fill:#ffffff;fill-opacity:1;fill-rule:nonzero;stroke:none"
       d="m 173.78516,78.382812 c -0.50782,1.558594 -2.625,2.390626 -4.73047,1.859376 l -2.96485,-0.746094 c -2.10547,-0.527344 -3.39843,-2.195313 -2.88672,-3.722656 l 0.72266,-2.152344 c 0.51172,-1.523438 2.62891,-2.359375 4.72656,-1.859375 l 2.96094,0.703125 c 2.10156,0.5 3.39063,2.167968 2.88672,3.726562 z m 0,0"
       id="path4250"
       inkscape:connector-curvature="0" />
    <path
       style="fill:#ffffff;fill-opacity:1;fill-rule:nonzero;stroke:none"
       d="m 170.9375,87.136719 c -0.50391,1.554687 -2.62891,2.359375 -4.73828,1.796875 l -2.97266,-0.789063 c -2.11328,-0.566406 -3.41015,-2.257812 -2.89844,-3.785156 l 0.71875,-2.152344 c 0.51563,-1.527343 2.63672,-2.332031 4.74219,-1.800781 l 2.96875,0.75 c 2.10156,0.535156 3.39844,2.230469 2.89453,3.785156 z m 0,0"
       id="path4252"
       inkscape:connector-curvature="0" />
    <path
       style="fill:#ffffff;fill-opacity:1;fill-rule:nonzero;stroke:none"
       d="m 168.08984,95.886719 c -0.50781,1.554687 -2.63281,2.335937 -4.75,1.738281 l -2.97656,-0.835938 c -2.12109,-0.597656 -3.42187,-2.316406 -2.91016,-3.84375 l 0.71875,-2.15625 c 0.51172,-1.523437 2.64063,-2.300781 4.75391,-1.738281 l 2.97266,0.796875 c 2.11328,0.566406 3.41406,2.289063 2.90625,3.847656 z m 0,0"
       id="path4254"
       inkscape:connector-curvature="0" />
    <path
       style="fill:#ffffff;fill-opacity:1;fill-rule:nonzero;stroke:none"
       d="m 165.24219,104.63672 c -0.50391,1.55859 -2.63672,2.3125 -4.76172,1.67969 l -2.98828,-0.88282 c -2.1211,-0.6289 -3.42578,-2.3789 -2.91407,-3.90625 l 0.71875,-2.148434 c 0.51172,-1.53125 2.64454,-2.28125 4.76172,-1.683594 l 2.98438,0.84375 c 2.11328,0.597657 3.42187,2.347658 2.91406,3.906248 z m 0,0"
       id="path4256"
       inkscape:connector-curvature="0" />
    <path
       style="fill:#ffffff;fill-opacity:1;fill-rule:nonzero;stroke:none"
       d="m 162.39453,113.39063 c -0.50781,1.55468 -2.64453,2.28125 -4.76953,1.62109 l -2.99609,-0.93359 c -2.12891,-0.66407 -3.44141,-2.4375 -2.92969,-3.96485 l 0.72265,-2.15234 c 0.51172,-1.52344 2.64844,-2.25391 4.77344,-1.61719 l 2.98828,0.88672 c 2.1211,0.63281 3.4336,2.41016 2.92188,3.96484 z m 0,0"
       id="path4258"
       inkscape:connector-curvature="0" />
    <path
       style="fill:#ffffff;fill-opacity:1;fill-rule:nonzero;stroke:none"
       d="m 199.69531,36.613281 c -0.5,1.589844 -2.59375,2.585938 -4.66797,2.21875 l -2.92968,-0.511719 c -2.07422,-0.363281 -3.34766,-1.925781 -2.83985,-3.484374 l 0.71094,-2.199219 c 0.50391,-1.558594 2.59766,-2.550781 4.66797,-2.21875 l 2.91797,0.46875 c 2.07422,0.335937 3.34765,1.898437 2.84765,3.488281 z m 0,0"
       id="path4260"
       inkscape:connector-curvature="0" />
    <path
       style="fill:#ffffff;fill-opacity:1;fill-rule:nonzero;stroke:none"
       d="m 196.87891,45.550781 c -0.5,1.589844 -2.59375,2.558594 -4.67969,2.160157 l -2.9336,-0.558594 c -2.08203,-0.398438 -3.36328,-1.984375 -2.85546,-3.542969 L 187.125,41.40625 c 0.50391,-1.558594 2.59766,-2.523438 4.67578,-2.160156 l 2.92969,0.519531 c 2.07812,0.371094 3.35547,1.957031 2.85547,3.546875 z m 0,0"
       id="path4262"
       inkscape:connector-curvature="0" />
    <path
       style="fill:#ffffff;fill-opacity:1;fill-rule:nonzero;stroke:none"
       d="m 194.0625,54.488281 c -0.5,1.589844 -2.60156,2.53125 -4.6875,2.101563 l -2.94141,-0.609375 c -2.08984,-0.429688 -3.375,-2.042969 -2.86718,-3.601563 l 0.71093,-2.199218 c 0.50782,-1.558594 2.60547,-2.5 4.6875,-2.101563 l 2.9375,0.566406 c 2.08594,0.398438 3.36719,2.015625 2.86719,3.605469 z m 0,0"
       id="path4264"
       inkscape:connector-curvature="0" />
    <path
       style="fill:#ffffff;fill-opacity:1;fill-rule:nonzero;stroke:none"
       d="m 191.24609,63.425781 c -0.5,1.589844 -2.60547,2.503907 -4.69922,2.039063 l -2.94921,-0.648438 c -2.09375,-0.464844 -3.38282,-2.109375 -2.875,-3.667968 l 0.71093,-2.199219 c 0.50782,-1.558594 2.61328,-2.472657 4.69922,-2.039063 l 2.94531,0.613282 c 2.08985,0.429687 3.375,2.074218 2.875,3.664062 z m 0,0"
       id="path4266"
       inkscape:connector-curvature="0" />
    <path
       style="fill:#ffffff;fill-opacity:1;fill-rule:nonzero;stroke:none"
       d="m 188.42969,72.363281 c -0.5,1.589844 -2.60938,2.476563 -4.70703,1.980469 l -2.96094,-0.703125 c -2.09766,-0.492187 -3.39063,-2.160156 -2.88672,-3.722656 l 0.71484,-2.199219 c 0.50391,-1.554688 2.61719,-2.445312 4.71094,-1.976562 l 2.94922,0.65625 c 2.09375,0.46875 3.38672,2.136718 2.88672,3.726562 z m 0,0"
       id="path4268"
       inkscape:connector-curvature="0" />
    <path
       style="fill:#ffffff;fill-opacity:1;fill-rule:nonzero;stroke:none"
       d="m 185.61328,81.300781 c -0.5,1.589844 -2.61328,2.449219 -4.71875,1.921875 l -2.96484,-0.746094 c -2.10547,-0.53125 -3.40235,-2.226562 -2.89453,-3.785156 l 0.71093,-2.199218 c 0.50782,-1.558594 2.6211,-2.421876 4.71875,-1.921876 l 2.96094,0.707032 c 2.09766,0.5 3.39453,2.195312 2.89453,3.78125 z m 0,0"
       id="path4270"
       inkscape:connector-curvature="0" />
    <path
       style="fill:#ffffff;fill-opacity:1;fill-rule:nonzero;stroke:none"
       d="m 182.79687,90.238281 c -0.5,1.589844 -2.61718,2.421875 -4.72656,1.859375 l -2.97265,-0.792968 c -2.11329,-0.5625 -3.41407,-2.28125 -2.90625,-3.839844 l 0.71093,-2.203125 c 0.50782,-1.558594 2.625,-2.390625 4.73047,-1.859375 l 2.96875,0.753906 c 2.10156,0.53125 3.40235,2.25 2.90235,3.84375 z m 0,0"
       id="path4272"
       inkscape:connector-curvature="0" />
    <path
       style="fill:#ffffff;fill-opacity:1;fill-rule:nonzero;stroke:none"
       d="m 179.98437,99.175781 c -0.5039,1.589849 -2.625,2.394529 -4.73828,1.800779 l -2.98437,-0.83984 c -2.11719,-0.597658 -3.42188,-2.343751 -2.91406,-3.902345 l 0.71093,-2.199219 c 0.50391,-1.558594 2.625,-2.367187 4.73828,-1.800781 l 2.97657,0.796875 c 2.10937,0.566406 3.41797,2.316406 2.91406,3.902344 z m 0,0"
       id="path4274"
       inkscape:connector-curvature="0" />
    <path
       style="fill:#ffffff;fill-opacity:1;fill-rule:nonzero;stroke:none"
       d="m 177.16797,108.11328 c -0.5,1.58985 -2.62891,2.36719 -4.75,1.73828 l -2.98828,-0.88281 c -2.125,-0.62891 -3.4336,-2.40625 -2.92969,-3.96484 l 0.71484,-2.19532 c 0.50782,-1.5664 2.63282,-2.34375 4.75,-1.74218 l 2.98047,0.83984 c 2.1211,0.60156 3.42969,2.37891 2.92578,3.96875 z m 0,0"
       id="path4276"
       inkscape:connector-curvature="0" />
    <path
       style="fill:#ffffff;fill-opacity:1;fill-rule:nonzero;stroke:none"
       d="m 214.14844,29.480469 c -0.49219,1.617187 -2.57422,2.667969 -4.64453,2.335937 l -2.91797,-0.464844 c -2.07422,-0.332031 -3.34766,-1.894531 -2.84766,-3.484374 L 204.44531,25.625 c 0.5,-1.597656 2.58203,-2.644531 4.64844,-2.34375 l 2.91016,0.425781 c 2.0664,0.300781 3.33984,1.859375 2.84375,3.484375 z m 0,0"
       id="path4278"
       inkscape:connector-curvature="0" />
    <path
       style="fill:#ffffff;fill-opacity:1;fill-rule:nonzero;stroke:none"
       d="m 211.36719,38.601562 c -0.4961,1.621094 -2.58203,2.644532 -4.66016,2.277344 l -2.92578,-0.507812 c -2.07813,-0.367188 -3.35547,-1.957032 -2.85547,-3.546875 l 0.70703,-2.246094 c 0.5,-1.59375 2.58594,-2.613281 4.65625,-2.28125 l 2.92188,0.472656 c 2.0664,0.335938 3.34765,1.921875 2.85547,3.546875 z m 0,0"
       id="path4280"
       inkscape:connector-curvature="0" />
    <path
       style="fill:#ffffff;fill-opacity:1;fill-rule:nonzero;stroke:none"
       d="m 208.58203,47.722656 c -0.49609,1.621094 -2.58594,2.621094 -4.66797,2.222656 l -2.93359,-0.558593 c -2.08203,-0.398438 -3.36719,-2.015625 -2.86719,-3.605469 l 0.70313,-2.246094 c 0.5039,-1.59375 2.59375,-2.585937 4.67187,-2.21875 l 2.92578,0.515625 c 2.07813,0.371094 3.36328,1.984375 2.86328,3.605469 z m 0,0"
       id="path4282"
       inkscape:connector-curvature="0" />
    <path
       style="fill:#ffffff;fill-opacity:1;fill-rule:nonzero;stroke:none"
       d="m 205.79687,56.847656 c -0.49609,1.621094 -2.58984,2.589844 -4.67578,2.160156 l -2.94531,-0.605468 c -2.08984,-0.429688 -3.375,-2.074219 -2.875,-3.664063 l 0.70313,-2.246093 c 0.5039,-1.59375 2.59765,-2.558594 4.67968,-2.160157 l 2.9375,0.566407 c 2.08203,0.398437 3.36719,2.039062 2.875,3.664062 z m 0,0"
       id="path4284"
       inkscape:connector-curvature="0" />
    <path
       style="fill:#ffffff;fill-opacity:1;fill-rule:nonzero;stroke:none"
       d="m 203.01172,65.96875 c -0.49219,1.625 -2.59375,2.5625 -4.6836,2.101562 L 195.375,67.417969 c -2.09375,-0.464844 -3.38672,-2.132813 -2.88672,-3.722657 l 0.70703,-2.246093 c 0.5,-1.589844 2.59766,-2.535157 4.6875,-2.097657 l 2.94141,0.605469 c 2.08984,0.4375 3.38281,2.105469 2.88672,3.726563 z m 0,0"
       id="path4286"
       inkscape:connector-curvature="0" />
    <path
       style="fill:#ffffff;fill-opacity:1;fill-rule:nonzero;stroke:none"
       d="m 200.23047,75.09375 c -0.4961,1.625 -2.60156,2.535156 -4.69922,2.039062 l -2.95703,-0.699218 c -2.10156,-0.496094 -3.39844,-2.191406 -2.89844,-3.785156 l 0.70703,-2.242188 c 0.4961,-1.59375 2.60547,-2.507812 4.69922,-2.039062 l 2.94922,0.65625 c 2.09375,0.464843 3.39062,2.164062 2.89453,3.785156 z m 0,0"
       id="path4288"
       inkscape:connector-curvature="0" />
    <path
       style="fill:#ffffff;fill-opacity:1;fill-rule:nonzero;stroke:none"
       d="m 197.44141,84.21875 c -0.49219,1.621094 -2.60157,2.507812 -4.70704,1.976562 l -2.96484,-0.746093 c -2.10547,-0.527344 -3.40625,-2.25 -2.90234,-3.839844 l 0.69922,-2.246094 c 0.5039,-1.59375 2.60937,-2.480469 4.71484,-1.980469 l 2.95312,0.703126 c 2.10157,0.5 3.40235,2.222656 2.90625,3.84375 z m 0,0"
       id="path4290"
       inkscape:connector-curvature="0" />
    <path
       style="fill:#ffffff;fill-opacity:1;fill-rule:nonzero;stroke:none"
       d="m 194.66016,93.339844 c -0.4961,1.625 -2.60938,2.484375 -4.71875,1.921875 l -2.97266,-0.792969 c -2.11328,-0.5625 -3.41797,-2.3125 -2.91797,-3.902344 l 0.70313,-2.242187 c 0.5039,-1.597657 2.61718,-2.457031 4.72265,-1.921875 l 2.96485,0.75 c 2.10546,0.53125 3.41015,2.277344 2.91406,3.902344 z m 0,0"
       id="path4292"
       inkscape:connector-curvature="0" />
    <path
       style="fill:#ffffff;fill-opacity:1;fill-rule:nonzero;stroke:none"
       d="m 191.875,102.46484 c -0.49219,1.6211 -2.61328,2.45313 -4.73047,1.85938 l -2.98047,-0.83984 c -2.11719,-0.59375 -3.42578,-2.3711 -2.92578,-3.960942 l 0.70313,-2.246094 c 0.5,-1.59375 2.62109,-2.425782 4.73437,-1.863282 l 2.97266,0.800782 c 2.11328,0.5625 3.41797,2.339844 2.92578,3.964846 z m 0,0"
       id="path4294"
       inkscape:connector-curvature="0" />
    <path
       style="fill:#ffffff;fill-opacity:1;fill-rule:nonzero;stroke:none"
       d="m 189.09375,111.58594 c -0.49609,1.625 -2.62109,2.42969 -4.74219,1.80469 l -2.98828,-0.88672 c -2.12109,-0.63282 -3.4375,-2.4336 -2.9375,-4.02735 l 0.70703,-2.24218 c 0.4961,-1.59375 2.6211,-2.39844 4.73828,-1.80079 l 2.98438,0.84375 c 2.11328,0.59766 3.42969,2.40235 2.93359,4.02344 z m 0,0"
       id="path4296"
       inkscape:connector-curvature="0" />
    <path
       style="fill:#ffffff;fill-opacity:1;fill-rule:nonzero;stroke:none"
       d="m 228.54687,21.96875 c -0.49218,1.652344 -2.5664,2.757812 -4.63281,2.460938 l -2.91015,-0.421876 c -2.06641,-0.296874 -3.33594,-1.855468 -2.84375,-3.480468 l 0.69531,-2.292969 c 0.49609,-1.625 2.57031,-2.726563 4.63281,-2.460937 l 2.89844,0.378906 c 2.0625,0.265625 3.33984,1.828125 2.84765,3.484375 z m 0,0"
       id="path4298"
       inkscape:connector-curvature="0" />
    <path
       style="fill:#ffffff;fill-opacity:1;fill-rule:nonzero;stroke:none"
       d="m 225.79297,31.277344 c -0.48828,1.65625 -2.57031,2.730468 -4.64063,2.398437 l -2.91797,-0.464843 c -2.07031,-0.328126 -3.35156,-1.917969 -2.85156,-3.542969 l 0.69141,-2.289063 c 0.49609,-1.628906 2.57422,-2.703125 4.64062,-2.40625 l 2.91016,0.429688 c 2.06641,0.300781 3.34766,1.890625 2.85547,3.542968 z m 0,0"
       id="path4300"
       inkscape:connector-curvature="0" />
    <path
       style="fill:#ffffff;fill-opacity:1;fill-rule:nonzero;stroke:none"
       d="m 223.03906,40.589844 c -0.48828,1.652344 -2.57031,2.703125 -4.64844,2.339844 l -2.92578,-0.515626 c -2.07812,-0.363281 -3.35937,-1.976562 -2.86718,-3.605468 l 0.69921,-2.289063 c 0.49219,-1.625 2.57422,-2.671875 4.64454,-2.339843 l 2.92187,0.472656 c 2.07422,0.332031 3.35547,1.949218 2.86719,3.601562 z m 0,0"
       id="path4302"
       inkscape:connector-curvature="0" />
    <path
       style="fill:#ffffff;fill-opacity:1;fill-rule:nonzero;stroke:none"
       d="m 220.28516,49.898438 c -0.48829,1.652343 -2.57422,2.675781 -4.65625,2.277343 l -2.9375,-0.558593 c -2.08204,-0.398438 -3.36719,-2.035157 -2.875,-3.664063 l 0.69921,-2.292969 c 0.4961,-1.625 2.57813,-2.644531 4.66016,-2.28125 l 2.92578,0.519532 c 2.07813,0.367187 3.36328,2.011718 2.875,3.667968 z m 0,0"
       id="path4304"
       inkscape:connector-curvature="0" />
    <path
       style="fill:#ffffff;fill-opacity:1;fill-rule:nonzero;stroke:none"
       d="m 217.53125,59.207031 c -0.48828,1.652344 -2.57813,2.648438 -4.66797,2.21875 l -2.94141,-0.605469 c -2.08593,-0.429687 -3.3789,-2.097656 -2.88671,-3.722656 l 0.69921,-2.292968 c 0.49219,-1.625 2.58204,-2.621094 4.66797,-2.21875 l 2.9336,0.5625 c 2.08593,0.402343 3.375,2.066406 2.88672,3.726562 z m 0,0"
       id="path4306"
       inkscape:connector-curvature="0" />
    <path
       style="fill:#ffffff;fill-opacity:1;fill-rule:nonzero;stroke:none"
       d="m 214.77734,68.515625 c -0.48828,1.65625 -2.58203,2.625 -4.67968,2.160156 l -2.94532,-0.652343 c -2.09375,-0.460938 -3.39062,-2.160157 -2.89843,-3.785157 l 0.69921,-2.289062 c 0.4961,-1.628907 2.58985,-2.59375 4.67969,-2.164063 l 2.94141,0.613282 c 2.08984,0.433593 3.38672,2.128906 2.89453,3.785156 z m 0,0"
       id="path4308"
       inkscape:connector-curvature="0" />
    <path
       style="fill:#ffffff;fill-opacity:1;fill-rule:nonzero;stroke:none"
       d="m 212.02734,77.824219 c -0.48828,1.65625 -2.58984,2.597656 -4.6875,2.101562 l -2.96093,-0.699219 c -2.09766,-0.496093 -3.39844,-2.21875 -2.90625,-3.84375 l 0.69921,-2.292968 c 0.4961,-1.625 2.59375,-2.566406 4.6875,-2.097656 l 2.94922,0.65625 c 2.09766,0.46875 3.39844,2.1875 2.91016,3.84375 z m 0,0"
       id="path4310"
       inkscape:connector-curvature="0" />
    <path
       style="fill:#ffffff;fill-opacity:1;fill-rule:nonzero;stroke:none"
       d="m 209.27344,87.136719 c -0.48828,1.652343 -2.58985,2.566406 -4.69922,2.039062 l -2.96485,-0.746093 c -2.10546,-0.527344 -3.41015,-2.277344 -2.91406,-3.90625 l 0.69531,-2.289063 c 0.4961,-1.625 2.59766,-2.539063 4.69922,-2.039063 l 2.95703,0.703126 c 2.10157,0.5 3.40625,2.246093 2.91797,3.90625 z m 0,0"
       id="path4312"
       inkscape:connector-curvature="0" />
    <path
       style="fill:#ffffff;fill-opacity:1;fill-rule:nonzero;stroke:none"
       d="m 206.51953,96.441406 c -0.48828,1.65625 -2.59375,2.542969 -4.70703,1.980469 l -2.97266,-0.789063 c -2.11328,-0.5625 -3.42187,-2.335937 -2.92578,-3.964843 l 0.69141,-2.289063 c 0.5,-1.628906 2.60547,-2.515625 4.71484,-1.980468 l 2.96485,0.75 c 2.10546,0.53125 3.41406,2.308593 2.92578,3.960937 z m 0,0"
       id="path4314"
       inkscape:connector-curvature="0" />
    <path
       style="fill:#ffffff;fill-opacity:1;fill-rule:nonzero;stroke:none"
       d="m 203.76953,105.75391 c -0.48828,1.65625 -2.60547,2.51562 -4.71875,1.91797 l -2.98437,-0.83985 c -2.11329,-0.59375 -3.42969,-2.39453 -2.9375,-4.01953 l 0.69921,-2.29297 c 0.4961,-1.624999 2.60938,-2.484374 4.71875,-1.921874 l 2.97266,0.800782 c 2.11328,0.5625 3.42969,2.367192 2.9375,4.019532 z m 0,0"
       id="path4316"
       inkscape:connector-curvature="0" />
    <path
       style="fill:#ffffff;fill-opacity:1;fill-rule:nonzero;stroke:none"
       d="m 240.15234,23.585938 c -0.48437,1.6875 -2.55078,2.816406 -4.61718,2.519531 L 232.625,25.6875 c -2.06641,-0.300781 -3.34375,-1.890625 -2.85938,-3.546875 l 0.69141,-2.339844 c 0.49219,-1.65625 2.55859,-2.785156 4.62109,-2.519531 l 2.90235,0.378906 c 2.05859,0.269532 3.33984,1.855469 2.85547,3.546875 z m 0,0"
       id="path4318"
       inkscape:connector-curvature="0" />
    <path
       style="fill:#ffffff;fill-opacity:1;fill-rule:nonzero;stroke:none"
       d="m 237.42969,33.082031 c -0.48047,1.6875 -2.55469,2.789063 -4.625,2.457031 l -2.91797,-0.46875 c -2.07031,-0.328124 -3.35547,-1.941406 -2.86719,-3.601562 l 0.6875,-2.335938 c 0.49219,-1.660156 2.5625,-2.761718 4.62891,-2.460937 l 2.91015,0.425781 c 2.06641,0.296875 3.35157,1.914063 2.86719,3.601563 z m 0,0"
       id="path4320"
       inkscape:connector-curvature="0" />
    <path
       style="fill:#ffffff;fill-opacity:1;fill-rule:nonzero;stroke:none"
       d="m 234.71094,42.578125 c -0.48438,1.683594 -2.5625,2.761719 -4.63672,2.394531 l -2.92578,-0.511718 c -2.07813,-0.363282 -3.36719,-2.003907 -2.87891,-3.664063 l 0.69141,-2.335937 c 0.48828,-1.660157 2.5664,-2.734376 4.63672,-2.402344 l 2.92187,0.472656 c 2.07031,0.335938 3.35547,1.976562 2.875,3.664062 z m 0,0"
       id="path4322"
       inkscape:connector-curvature="0" />
    <path
       style="fill:#ffffff;fill-opacity:1;fill-rule:nonzero;stroke:none"
       d="m 231.98828,52.070312 c -0.48437,1.6875 -2.5625,2.734376 -4.64844,2.339844 l -2.93359,-0.558594 c -2.08203,-0.398437 -3.375,-2.066406 -2.88672,-3.722656 l 0.69141,-2.339844 c 0.48828,-1.660156 2.5664,-2.707031 4.64843,-2.339843 l 2.92579,0.519531 c 2.07812,0.367188 3.37109,2.03125 2.88671,3.71875 z m 0,0"
       id="path4324"
       inkscape:connector-curvature="0" />
    <path
       style="fill:#ffffff;fill-opacity:1;fill-rule:nonzero;stroke:none"
       d="m 229.26953,61.566406 c -0.48437,1.6875 -2.57031,2.707032 -4.66016,2.277344 l -2.9414,-0.601562 c -2.08594,-0.433594 -3.38281,-2.128907 -2.89453,-3.785157 l 0.68359,-2.339843 c 0.49219,-1.65625 2.57813,-2.679688 4.66406,-2.28125 l 2.9336,0.566406 c 2.08203,0.398437 3.3789,2.09375 2.89453,3.78125 z m 0,0"
       id="path4326"
       inkscape:connector-curvature="0" />
    <path
       style="fill:#ffffff;fill-opacity:1;fill-rule:nonzero;stroke:none"
       d="m 226.54687,71.0625 c -0.48437,1.6875 -2.57421,2.683594 -4.66796,2.21875 l -2.94922,-0.652344 c -2.09375,-0.464844 -3.39844,-2.183594 -2.90625,-3.84375 l 0.6875,-2.339844 c 0.48828,-1.660156 2.58203,-2.652343 4.66797,-2.21875 l 2.94531,0.609376 c 2.08984,0.4375 3.39062,2.15625 2.90625,3.847656 z m 0,0"
       id="path4328"
       inkscape:connector-curvature="0" />
    <path
       style="fill:#ffffff;fill-opacity:1;fill-rule:nonzero;stroke:none"
       d="m 223.82422,80.554688 c -0.48047,1.6875 -2.57813,2.65625 -4.67969,2.164062 l -2.95703,-0.703125 c -2.09766,-0.492187 -3.40234,-2.242187 -2.91406,-3.902344 l 0.6875,-2.335937 c 0.48828,-1.660156 2.58593,-2.628906 4.67968,-2.160156 l 2.94922,0.65625 c 2.09375,0.464843 3.40235,2.214843 2.91797,3.902343 z m 0,0"
       id="path4330"
       inkscape:connector-curvature="0" />
    <path
       style="fill:#ffffff;fill-opacity:1;fill-rule:nonzero;stroke:none"
       d="m 221.10156,90.050781 c -0.48047,1.6875 -2.58203,2.628907 -4.68359,2.101563 l -2.96485,-0.746094 c -2.10937,-0.53125 -3.41796,-2.304688 -2.92968,-3.964844 l 0.6875,-2.335937 c 0.48828,-1.660157 2.58984,-2.601563 4.6914,-2.101563 l 2.95703,0.703125 c 2.09766,0.5 3.41016,2.277344 2.92579,3.964844 z m 0,0"
       id="path4332"
       inkscape:connector-curvature="0" />
    <path
       style="fill:#ffffff;fill-opacity:1;fill-rule:nonzero;stroke:none"
       d="m 218.38281,99.546875 c -0.48047,1.687505 -2.58984,2.601565 -4.69531,2.039065 l -2.97656,-0.79297 c -2.11328,-0.55859 -3.42578,-2.363282 -2.9375,-4.023439 l 0.6914,-2.335937 c 0.48828,-1.660156 2.58985,-2.574219 4.69532,-2.039063 l 2.96875,0.75 c 2.10546,0.53125 3.41796,2.335938 2.9375,4.019531 z m 0,0"
       id="path4334"
       inkscape:connector-curvature="0" />
    <path
       style="fill:#ffffff;fill-opacity:1;fill-rule:nonzero;stroke:none"
       d="m 215.66016,109.03906 c -0.48438,1.69141 -2.59375,2.57813 -4.70704,1.98438 l -2.98437,-0.83985 c -2.11719,-0.59375 -3.43359,-2.42187 -2.94531,-4.08203 l 0.6875,-2.33984 c 0.49218,-1.65625 2.60156,-2.54688 4.71484,-1.98047 l 2.97266,0.79688 c 2.10937,0.57031 3.42578,2.39453 2.94531,4.08593 z m 0,0"
       id="path4336"
       inkscape:connector-curvature="0" />
    <path
       style="fill:#ffffff;fill-opacity:1;fill-rule:nonzero;stroke:none"
       d="m 222.94141,108.01953 c -0.23438,0.82813 -1.26172,1.27344 -2.28907,0.99219 l -1.44922,-0.39844 c -1.03125,-0.28125 -1.67578,-1.17969 -1.4414,-2.00781 l 0.33203,-1.16016 c 0.23828,-0.82422 1.26172,-1.26953 2.28906,-0.99218 l 1.44922,0.38671 c 1.03125,0.27735 1.67188,1.17579 1.4375,2.00782 z m 0,0"
       id="path4338"
       inkscape:connector-curvature="0" />
    <path
       style="fill:#ffffff;fill-opacity:1;fill-rule:nonzero;stroke:none"
       d="m 240.22656,112.72266 c -0.23047,0.85547 -1.25,1.3164 -2.28125,1.03906 l -1.44922,-0.40234 c -1.03125,-0.28125 -1.67578,-1.19922 -1.44531,-2.04688 l 0.32422,-1.19531 c 0.23047,-0.84766 1.25391,-1.3125 2.28516,-1.03516 l 1.44921,0.38672 c 1.02735,0.27734 1.67579,1.19531 1.44141,2.05078 z m 0,0"
       id="path4340"
       inkscape:connector-curvature="0" />
    <path
       style="fill:#ffffff;fill-opacity:1;fill-rule:nonzero;stroke:none"
       d="m 306.85547,45.640625 c -0.22266,0.917969 -1.21485,1.53125 -2.22656,1.371094 l -1.41797,-0.226563 c -1.01172,-0.160156 -1.65235,-1.03125 -1.42969,-1.945312 l 0.30859,-1.285156 c 0.21875,-0.910157 1.21875,-1.527344 2.22657,-1.375 l 1.42187,0.21875 c 1.00781,0.15625 1.64453,1.023437 1.42578,1.945312 z m 0,0"
       id="path4342"
       inkscape:connector-curvature="0" />
    <path
       style="fill:#ffffff;fill-opacity:1;fill-rule:nonzero;stroke:none"
       d="m 327.28906,37.566406 c -0.21484,0.941406 -1.20703,1.59375 -2.21094,1.445313 l -1.41796,-0.203125 c -1.00782,-0.144532 -1.64844,-1.019532 -1.42969,-1.960938 l 0.30078,-1.320312 c 0.21484,-0.9375 1.20703,-1.585938 2.21094,-1.445313 l 1.41797,0.191407 c 1.00781,0.140624 1.64843,1.015624 1.43359,1.960937 z m 0,0"
       id="path4344"
       inkscape:connector-curvature="0" />
    <path
       style="fill:#ffffff;fill-opacity:1;fill-rule:nonzero;stroke:none"
       d="m 341.73047,140.34766 c -0.20703,0.99218 -1.21094,1.57031 -2.23828,1.28906 l -1.45313,-0.39844 c -1.03125,-0.28516 -1.69531,-1.3125 -1.48828,-2.29687 l 0.28906,-1.39063 c 0.21094,-0.98437 1.21485,-1.5625 2.24219,-1.28516 l 1.45313,0.38672 c 1.02734,0.27735 1.6914,1.30469 1.48828,2.29688 z m 0,0"
       id="path4346"
       inkscape:connector-curvature="0" />
    <path
       style="fill:#ffffff;fill-opacity:1;fill-rule:nonzero;stroke:none"
       d="m 282.03125,26.324219 c -0.22656,0.878906 -1.22656,1.480469 -2.23047,1.34375 l -1.41797,-0.195313 c -1.0039,-0.136718 -1.63281,-0.957031 -1.41015,-1.832031 l 0.32421,-1.226563 c 0.22657,-0.875 1.22266,-1.476562 2.23047,-1.347656 l 1.41407,0.1875 c 1.0039,0.128906 1.63281,0.949219 1.40625,1.832032 z m 0,0"
       id="path4348"
       inkscape:connector-curvature="0" />
    <path
       style="fill:#ffffff;fill-opacity:1;fill-rule:nonzero;stroke:none"
       d="m 151.28516,107.21094 c -0.25,0.74609 -1.29297,1.08984 -2.32813,0.77344 L 147.5,107.54297 c -1.03516,-0.3125 -1.67188,-1.16797 -1.42188,-1.90234 l 0.35157,-1.03516 c 0.2539,-0.73438 1.29687,-1.08203 2.32812,-0.77344 l 1.45703,0.4336 c 1.03516,0.30859 1.67188,1.15625 1.42188,1.90234 z m 0,0"
       id="path4350"
       inkscape:connector-curvature="0" />
    <path
       style="fill:#ffffff;fill-opacity:1;fill-rule:nonzero;stroke:none"
       d="m 158.37891,48.796875 c -0.25391,0.722656 -1.28125,1.144531 -2.30079,0.933594 L 154.64453,49.4375 c -1.01562,-0.210938 -1.63672,-0.964844 -1.38281,-1.683594 l 0.35547,-1.015625 c 0.2539,-0.71875 1.28125,-1.136719 2.30078,-0.933593 l 1.43359,0.285156 c 1.01563,0.203125 1.63281,0.957031 1.37891,1.683594 z m 0,0"
       id="path4352"
       inkscape:connector-curvature="0" />
    <path
       style="fill:#ffffff;fill-opacity:1;fill-rule:nonzero;stroke:none"
       d="m 184.70703,44.824219 c -0.24609,0.757812 -1.26953,1.214843 -2.28516,1.019531 l -1.43359,-0.269531 c -1.01172,-0.191407 -1.63281,-0.957031 -1.38281,-1.710938 l 0.34375,-1.0625 c 0.25,-0.75 1.27344,-1.207031 2.28515,-1.019531 l 1.42969,0.261719 c 1.01563,0.1875 1.63672,0.953125 1.39063,1.710937 z m 0,0"
       id="path4354"
       inkscape:connector-curvature="0" />
    <path
       style="fill:#ffffff;fill-opacity:1;fill-rule:nonzero;stroke:none"
       d="m 196.35937,110.75781 c -0.23828,0.80078 -1.27343,1.20703 -2.30468,0.90625 l -1.45313,-0.41797 c -1.03515,-0.30078 -1.67578,-1.1875 -1.43359,-1.97656 l 0.33594,-1.11719 c 0.24609,-0.79296 1.27734,-1.19531 2.30859,-0.90625 l 1.45312,0.41016 c 1.03125,0.29297 1.67188,1.17578 1.4336,1.97656 z m 0,0"
       id="path4356"
       inkscape:connector-curvature="0" />
    <path
       style="fill:#ffffff;fill-opacity:1;fill-rule:nonzero;stroke:none"
       d="m 249.48437,126.01172 c -0.22656,0.87109 -1.25,1.33203 -2.28125,1.03516 l -1.45703,-0.42188 c -1.03125,-0.29687 -1.68359,-1.24219 -1.45312,-2.10547 l 0.32031,-1.21875 c 0.23047,-0.86328 1.25391,-1.32812 2.28125,-1.03906 l 1.45313,0.41406 c 1.03515,0.29297 1.68359,1.23438 1.45703,2.10547 z m 0,0"
       id="path4358"
       inkscape:connector-curvature="0" />
    <path
       style="fill:#ffffff;fill-opacity:1;fill-rule:nonzero;stroke:none"
       d="m 148.07031,78.46875 c -0.25,0.726562 -1.28906,1.097656 -2.3164,0.832031 l -1.44922,-0.375 c -1.02344,-0.269531 -1.65235,-1.066406 -1.39844,-1.785156 L 143.26172,76.125 c 0.2539,-0.71875 1.28906,-1.09375 2.3164,-0.832031 l 1.44532,0.363281 c 1.02734,0.261719 1.65625,1.0625 1.40234,1.789062 z m 0,0"
       id="path4360"
       inkscape:connector-curvature="0" />
    <path
       style="fill:#ffffff;fill-opacity:1;fill-rule:nonzero;stroke:none"
       d="m 254.45312,15.519531 c -0.48046,1.722657 -2.53906,2.902344 -4.60156,2.636719 l -2.89844,-0.371094 c -2.0625,-0.265625 -3.33984,-1.851562 -2.85546,-3.546875 l 0.67968,-2.382812 c 0.48438,-1.691407 2.53907,-2.875 4.59766,-2.640625 l 2.89453,0.332031 c 2.05469,0.234375 3.33594,1.824219 2.85547,3.542969 z m 0,0"
       id="path4362"
       inkscape:connector-curvature="0" />
    <path
       style="fill:#ffffff;fill-opacity:1;fill-rule:nonzero;stroke:none"
       d="m 251.76172,25.199219 c -0.48047,1.722656 -2.54297,2.878906 -4.60547,2.582031 l -2.91406,-0.421875 c -2.06641,-0.300781 -3.34766,-1.910156 -2.86328,-3.605469 l 0.67968,-2.382812 c 0.48438,-1.691406 2.54688,-2.847656 4.60938,-2.578125 l 2.90234,0.378906 c 2.0586,0.265625 3.34375,1.878906 2.86719,3.601563 z m 0,0"
       id="path4364"
       inkscape:connector-curvature="0" />
    <path
       style="fill:#ffffff;fill-opacity:1;fill-rule:nonzero;stroke:none"
       d="m 249.07031,34.882812 c -0.47656,1.71875 -2.54297,2.847657 -4.61719,2.519532 l -2.91796,-0.46875 c -2.07032,-0.332032 -3.35938,-1.972656 -2.875,-3.664063 l 0.67968,-2.382812 c 0.48828,-1.695313 2.55078,-2.824219 4.61719,-2.519531 l 2.91406,0.421874 c 2.06641,0.304688 3.35157,1.941407 2.875,3.664063 z m 0,0"
       id="path4366"
       inkscape:connector-curvature="0" />
    <path
       style="fill:#ffffff;fill-opacity:1;fill-rule:nonzero;stroke:none"
       d="m 246.37891,44.5625 c -0.47657,1.722656 -2.55079,2.824219 -4.625,2.460938 l -2.92579,-0.515626 c -2.07812,-0.363281 -3.37109,-2.03125 -2.88671,-3.722656 l 0.68359,-2.382812 c 0.48047,-1.695313 2.55469,-2.796875 4.625,-2.460938 l 2.91797,0.472656 c 2.07422,0.332032 3.36719,2 2.89062,3.71875 z m 0,0"
       id="path4368"
       inkscape:connector-curvature="0" />
    <path
       style="fill:#ffffff;fill-opacity:1;fill-rule:nonzero;stroke:none"
       d="m 243.69531,54.242188 c -0.48047,1.722656 -2.55859,2.800781 -4.64062,2.402343 l -2.9336,-0.558593 c -2.08203,-0.402344 -3.3789,-2.09375 -2.89843,-3.785157 l 0.68359,-2.386719 c 0.48047,-1.691406 2.55859,-2.765624 4.63672,-2.398437 l 2.92578,0.515625 c 2.07812,0.367188 3.375,2.0625 2.89844,3.785156 z m 0,0"
       id="path4370"
       inkscape:connector-curvature="0" />
    <path
       style="fill:#ffffff;fill-opacity:1;fill-rule:nonzero;stroke:none"
       d="m 241.00391,63.925781 c -0.48047,1.722657 -2.5586,2.769531 -4.64844,2.339844 l -2.94531,-0.605469 c -2.08594,-0.429687 -3.38672,-2.152344 -2.90235,-3.84375 l 0.67969,-2.386718 c 0.48437,-1.691407 2.56641,-2.738282 4.64844,-2.339844 l 2.93359,0.566406 c 2.08594,0.398438 3.38672,2.121094 2.90625,3.839844 z m 0,0"
       id="path4372"
       inkscape:connector-curvature="0" />
    <path
       style="fill:#ffffff;fill-opacity:1;fill-rule:nonzero;stroke:none"
       d="m 238.3125,73.605469 c -0.47656,1.722656 -2.5625,2.742187 -4.66016,2.277343 l -2.94922,-0.648437 c -2.08984,-0.464844 -3.39843,-2.214844 -2.91406,-3.902344 l 0.67969,-2.386719 c 0.48437,-1.695312 2.57031,-2.714843 4.66016,-2.28125 l 2.9414,0.613282 c 2.08985,0.429687 3.39453,2.179687 2.91797,3.902344 z m 0,0"
       id="path4374"
       inkscape:connector-curvature="0" />
    <path
       style="fill:#ffffff;fill-opacity:1;fill-rule:nonzero;stroke:none"
       d="m 235.625,83.285156 c -0.48047,1.726563 -2.57031,2.71875 -4.67188,2.222656 l -2.95703,-0.703124 c -2.10156,-0.492188 -3.41015,-2.269532 -2.92578,-3.960938 l 0.6836,-2.382812 c 0.48046,-1.695313 2.57421,-2.6875 4.66406,-2.21875 l 2.94922,0.65625 c 2.09765,0.464843 3.41015,2.242187 2.92968,3.960937 z m 0,0"
       id="path4376"
       inkscape:connector-curvature="0" />
    <path
       style="fill:#ffffff;fill-opacity:1;fill-rule:nonzero;stroke:none"
       d="m 232.93359,92.96875 c -0.47656,1.722656 -2.57422,2.6875 -4.67968,2.160156 l -2.96485,-0.746094 c -2.10547,-0.527343 -3.42187,-2.332031 -2.9375,-4.023437 l 0.6836,-2.382813 c 0.48046,-1.695312 2.57812,-2.660156 4.67968,-2.160156 l 2.95313,0.703125 c 2.10156,0.5 3.41797,2.300781 2.9414,4.019531 z m 0,0"
       id="path4378"
       inkscape:connector-curvature="0" />
    <path
       style="fill:#ffffff;fill-opacity:1;fill-rule:nonzero;stroke:none"
       d="m 230.24219,102.64844 c -0.47657,1.72265 -2.57422,2.66406 -4.6875,2.10156 l -2.97266,-0.79297 c -2.10937,-0.55859 -3.42969,-2.39062 -2.94531,-4.08203 l 0.67969,-2.386719 c 0.48437,-1.691406 2.58203,-2.632812 4.6875,-2.097656 l 2.96875,0.75 c 2.10546,0.53125 3.42578,2.363281 2.94531,4.082035 z m 0,0"
       id="path4380"
       inkscape:connector-curvature="0" />
    <path
       style="fill:#ffffff;fill-opacity:1;fill-rule:nonzero;stroke:none"
       d="m 266.03125,16.945312 c -0.47656,1.757813 -2.53125,2.96875 -4.58984,2.699219 l -2.90235,-0.371093 c -2.05859,-0.265626 -3.34375,-1.878907 -2.86719,-3.601563 l 0.67188,-2.433594 c 0.48047,-1.726562 2.53516,-2.933593 4.58984,-2.699219 l 2.89844,0.332032 c 2.05078,0.234375 3.33594,1.847656 2.85938,3.605468 z m 0,0"
       id="path4382"
       inkscape:connector-curvature="0" />
    <path
       style="fill:#ffffff;fill-opacity:1;fill-rule:nonzero;stroke:none"
       d="m 263.37109,26.816406 c -0.47265,1.753906 -2.53125,2.933594 -4.59765,2.640625 l -2.91016,-0.421875 c -2.0625,-0.296875 -3.35547,-1.9375 -2.875,-3.664062 l 0.67188,-2.429688 c 0.48046,-1.726562 2.53906,-2.910156 4.59765,-2.640625 l 2.90235,0.378907 c 2.0625,0.265624 3.35156,1.90625 2.8789,3.664062 z m 0,0"
       id="path4384"
       inkscape:connector-curvature="0" />
    <path
       style="fill:#ffffff;fill-opacity:1;fill-rule:nonzero;stroke:none"
       d="m 260.71094,36.683594 c -0.47266,1.753906 -2.53516,2.910156 -4.60547,2.578125 l -2.91797,-0.464844 c -2.07031,-0.332031 -3.36328,-2 -2.88672,-3.726563 l 0.67188,-2.429687 c 0.47656,-1.726563 2.54296,-2.878906 4.60937,-2.578125 l 2.91016,0.421875 c 2.0664,0.300781 3.35937,1.96875 2.88672,3.726563 z m 0,0"
       id="path4386"
       inkscape:connector-curvature="0" />
    <path
       style="fill:#ffffff;fill-opacity:1;fill-rule:nonzero;stroke:none"
       d="m 258.05078,46.550781 c -0.46875,1.753907 -2.53516,2.882813 -4.61328,2.519531 l -2.92578,-0.515624 c -2.07813,-0.359376 -3.375,-2.058594 -2.89844,-3.78125 l 0.67578,-2.433594 c 0.47656,-1.726563 2.54688,-2.851563 4.61719,-2.519532 l 2.91797,0.472657 c 2.07422,0.335937 3.36719,2.027343 2.89453,3.785156 z m 0,0"
       id="path4388"
       inkscape:connector-curvature="0" />
    <path
       style="fill:#ffffff;fill-opacity:1;fill-rule:nonzero;stroke:none"
       d="m 255.39453,56.417969 c -0.47266,1.753906 -2.54297,2.855469 -4.625,2.460937 l -2.93359,-0.5625 c -2.08203,-0.394531 -3.38672,-2.117187 -2.91016,-3.84375 l 0.67578,-2.429687 c 0.47656,-1.730469 2.55078,-2.828125 4.62891,-2.460938 l 2.92578,0.519531 c 2.07812,0.367188 3.37891,2.085938 2.90625,3.839844 z m 0,0"
       id="path4390"
       inkscape:connector-curvature="0" />
    <path
       style="fill:#ffffff;fill-opacity:1;fill-rule:nonzero;stroke:none"
       d="m 252.73828,66.285156 c -0.47266,1.753906 -2.55078,2.828125 -4.64062,2.398438 l -2.9375,-0.605469 c -2.08985,-0.429687 -3.39844,-2.179687 -2.91797,-3.902344 l 0.67187,-2.433593 c 0.48047,-1.726563 2.55469,-2.800782 4.64063,-2.398438 l 2.93359,0.5625 c 2.08203,0.402344 3.39063,2.152344 2.91406,3.902344 z m 0,0"
       id="path4392"
       inkscape:connector-curvature="0" />
    <path
       style="fill:#ffffff;fill-opacity:1;fill-rule:nonzero;stroke:none"
       d="m 250.07812,76.152344 c -0.46875,1.753906 -2.55078,2.800781 -4.64843,2.339844 l -2.94532,-0.652344 C 240.39062,77.375 239.07422,75.597656 239.55469,73.875 l 0.67187,-2.429688 c 0.48047,-1.726562 2.5625,-2.777343 4.65235,-2.34375 l 2.9375,0.613282 c 2.09375,0.433594 3.40234,2.207031 2.92968,3.960937 z m 0,0"
       id="path4394"
       inkscape:connector-curvature="0" />
    <path
       style="fill:#ffffff;fill-opacity:1;fill-rule:nonzero;stroke:none"
       d="m 247.42187,86.019531 c -0.47265,1.753907 -2.55859,2.773438 -4.66015,2.277344 l -2.95313,-0.699219 c -2.10156,-0.492187 -3.41797,-2.296875 -2.9414,-4.023437 l 0.67578,-2.429688 c 0.47656,-1.726562 2.5664,-2.746093 4.65625,-2.277343 l 2.95312,0.65625 c 2.09375,0.464843 3.41016,2.265624 2.9336,4.019531 z m 0,0"
       id="path4396"
       inkscape:connector-curvature="0" />
    <path
       style="fill:#ffffff;fill-opacity:1;fill-rule:nonzero;stroke:none"
       d="m 244.76172,95.882812 c -0.47266,1.757813 -2.5625,2.75 -4.66797,2.222657 l -2.96484,-0.746094 C 235.02734,96.828125 233.70312,95 234.18359,93.277344 l 0.67188,-2.433594 c 0.47656,-1.726562 2.57031,-2.71875 4.67187,-2.21875 l 2.95703,0.703125 c 2.09766,0.5 3.41797,2.328125 2.94532,4.085937 z m 0,0"
       id="path4398"
       inkscape:connector-curvature="0" />
    <path
       style="fill:#ffffff;fill-opacity:1;fill-rule:nonzero;stroke:none"
       d="m 242.10547,105.75 c -0.47266,1.75781 -2.56641,2.72656 -4.67969,2.16406 l -2.97266,-0.79297 c -2.10937,-0.5625 -3.43359,-2.41796 -2.95703,-4.14453 l 0.67188,-2.42968 c 0.48047,-1.726568 2.57422,-2.691411 4.67969,-2.160161 l 2.96484,0.75 c 2.10937,0.53125 3.42969,2.386721 2.95703,4.144531 z m 0,0"
       id="path4400"
       inkscape:connector-curvature="0" />
    <path
       style="fill:#ffffff;fill-opacity:1;fill-rule:nonzero;stroke:none"
       d="m 277.60547,18.378906 c -0.46875,1.789063 -2.51953,3.019532 -4.57813,2.757813 l -2.90234,-0.375 C 268.06641,20.5 266.77734,18.855469 267.25,17.097656 l 0.66797,-2.476562 c 0.46875,-1.761719 2.51953,-2.992188 4.57422,-2.761719 l 2.89453,0.332031 c 2.05859,0.238282 3.34375,1.875 2.875,3.664063 z m 0,0"
       id="path4402"
       inkscape:connector-curvature="0" />
    <path
       style="fill:#ffffff;fill-opacity:1;fill-rule:nonzero;stroke:none"
       d="m 274.98047,28.429688 c -0.46875,1.789062 -2.52344,2.996093 -4.58985,2.699218 l -2.91015,-0.421875 c -2.06641,-0.296875 -3.35938,-1.964843 -2.88281,-3.722656 l 0.66406,-2.476563 c 0.47265,-1.761718 2.52344,-2.96875 4.58594,-2.699218 L 272.75,22.1875 c 2.0625,0.265625 3.35547,1.933594 2.88672,3.722656 z m 0,0"
       id="path4404"
       inkscape:connector-curvature="0" />
    <path
       style="fill:#ffffff;fill-opacity:1;fill-rule:nonzero;stroke:none"
       d="m 272.35156,38.484375 c -0.46484,1.789063 -2.52344,2.96875 -4.59765,2.636719 l -2.91797,-0.464844 c -2.07032,-0.328125 -3.3711,-2.023438 -2.89453,-3.785156 l 0.66406,-2.476563 c 0.47265,-1.757812 2.53125,-2.9375 4.59765,-2.640625 l 2.91407,0.425782 c 2.0625,0.300781 3.36328,1.996093 2.89453,3.785156 z m 0,0"
       id="path4406"
       inkscape:connector-curvature="0" />
    <path
       style="fill:#ffffff;fill-opacity:1;fill-rule:nonzero;stroke:none"
       d="m 269.72656,48.535156 c -0.46875,1.789063 -2.52734,2.945313 -4.60937,2.582032 l -2.92578,-0.511719 c -2.07422,-0.367188 -3.375,-2.089844 -2.90625,-3.84375 l 0.66796,-2.476563 c 0.46875,-1.761718 2.53516,-2.914062 4.60547,-2.582031 l 2.91797,0.472656 c 2.07422,0.332031 3.375,2.050781 2.91016,3.839844 z m 0,0"
       id="path4408"
       inkscape:connector-curvature="0" />
    <path
       style="fill:#ffffff;fill-opacity:1;fill-rule:nonzero;stroke:none"
       d="m 267.09766,58.589844 c -0.46875,1.789062 -2.53125,2.914062 -4.61719,2.519531 l -2.9336,-0.558594 c -2.08203,-0.398437 -3.38671,-2.148437 -2.91796,-3.90625 l 0.66796,-2.476562 c 0.47266,-1.757813 2.53907,-2.886719 4.61719,-2.519531 l 2.92578,0.519531 c 2.07813,0.363281 3.38672,2.113281 2.91797,3.902343 z m 0,0"
       id="path4410"
       inkscape:connector-curvature="0" />
    <path
       style="fill:#ffffff;fill-opacity:1;fill-rule:nonzero;stroke:none"
       d="m 264.47266,68.644531 c -0.46875,1.789063 -2.53907,2.890625 -4.62891,2.457031 l -2.94141,-0.605468 c -2.08593,-0.429688 -3.39843,-2.207032 -2.92578,-3.964844 l 0.66406,-2.476562 c 0.47266,-1.757813 2.54688,-2.859376 4.62891,-2.460938 l 2.93359,0.566406 c 2.08594,0.402344 3.39454,2.175782 2.92579,3.960938 z m 0,0"
       id="path4412"
       inkscape:connector-curvature="0" />
    <path
       style="fill:#ffffff;fill-opacity:1;fill-rule:nonzero;stroke:none"
       d="m 261.84375,78.699219 c -0.46484,1.785156 -2.54297,2.859375 -4.63672,2.394531 l -2.94922,-0.652344 c -2.09375,-0.460937 -3.40625,-2.265625 -2.9375,-4.019531 l 0.66797,-2.480469 c 0.46875,-1.761718 2.54688,-2.832031 4.63672,-2.398437 l 2.94141,0.613281 c 2.08984,0.429688 3.40625,2.230469 2.9375,4.019531 z m 0,0"
       id="path4414"
       inkscape:connector-curvature="0" />
    <path
       style="fill:#ffffff;fill-opacity:1;fill-rule:nonzero;stroke:none"
       d="m 259.21875,88.75 c -0.46875,1.789062 -2.54688,2.835938 -4.64844,2.339844 l -2.95703,-0.699219 c -2.09766,-0.496094 -3.41797,-2.328125 -2.94922,-4.085937 l 0.66797,-2.476563 c 0.47266,-1.761719 2.55469,-2.804687 4.64844,-2.339844 l 2.94922,0.65625 c 2.09765,0.464844 3.41406,2.296875 2.94922,4.085938 z m 0,0"
       id="path4416"
       inkscape:connector-curvature="0" />
    <path
       style="fill:#ffffff;fill-opacity:1;fill-rule:nonzero;stroke:none"
       d="m 256.59375,98.800781 c -0.46875,1.789059 -2.55469,2.812499 -4.65625,2.281249 l -2.96875,-0.74609 c -2.10547,-0.527346 -3.42969,-2.382815 -2.95703,-4.144534 l 0.66406,-2.476562 c 0.47266,-1.757813 2.5625,-2.777344 4.66016,-2.277344 l 2.95703,0.703125 c 2.10156,0.5 3.42578,2.355469 2.95703,4.144531 z m 0,0"
       id="path4418"
       inkscape:connector-curvature="0" />
    <path
       style="fill:#ffffff;fill-opacity:1;fill-rule:nonzero;stroke:none"
       d="m 253.96484,108.85547 c -0.46484,1.78906 -2.55468,2.78516 -4.66797,2.22266 l -2.97265,-0.79297 c -2.10938,-0.5625 -3.4375,-2.44922 -2.96875,-4.20313 l 0.66797,-2.48047 c 0.47265,-1.75781 2.5625,-2.75 4.66797,-2.21875 l 2.96484,0.75 c 2.10937,0.53516 3.4375,2.41407 2.96875,4.20313 z m 0,0"
       id="path4420"
       inkscape:connector-curvature="0" />
    <path
       style="fill:#ffffff;fill-opacity:1;fill-rule:nonzero;stroke:none"
       d="m 251.34375,118.91016 c -0.46875,1.78906 -2.56641,2.7539 -4.68359,2.16015 l -2.98047,-0.83984 c -2.11328,-0.59375 -3.44922,-2.50391 -2.97657,-4.26172 l 0.66407,-2.48047 c 0.47265,-1.75781 2.5664,-2.72265 4.67968,-2.15625 l 2.97266,0.79688 c 2.11328,0.5625 3.44531,2.47265 2.98047,4.26172 z m 0,0"
       id="path4422"
       inkscape:connector-curvature="0" />
    <path
       style="fill:#ffffff;fill-opacity:1;fill-rule:nonzero;stroke:none"
       d="m 289.17969,19.804688 c -0.45703,1.820312 -2.50391,3.085937 -4.5625,2.820312 l -2.90235,-0.375 c -2.05859,-0.261719 -3.35156,-1.929688 -2.88672,-3.722656 l 0.65625,-2.523438 c 0.46875,-1.792968 2.51172,-3.054687 4.56641,-2.816406 l 2.89844,0.328125 c 2.05469,0.234375 3.34375,1.902344 2.88281,3.726563 z m 0,0"
       id="path4424"
       inkscape:connector-curvature="0" />
    <path
       style="fill:#ffffff;fill-opacity:1;fill-rule:nonzero;stroke:none"
       d="m 283.99219,40.285156 c -0.46094,1.820313 -2.51563,3.03125 -4.58594,2.699219 l -2.91797,-0.46875 c -2.07031,-0.328125 -3.375,-2.050781 -2.91016,-3.839844 l 0.66016,-2.527343 c 0.46875,-1.792969 2.51953,-3 4.58984,-2.695313 l 2.90625,0.421875 c 2.06641,0.300781 3.3711,2.019531 2.90625,3.84375 z m 0,0"
       id="path4426"
       inkscape:connector-curvature="0" />
    <path
       style="fill:#ffffff;fill-opacity:1;fill-rule:nonzero;stroke:none"
       d="m 281.39844,50.523438 c -0.46485,1.820312 -2.52344,3.003906 -4.59766,2.640624 L 273.875,52.652344 c -2.07813,-0.367188 -3.38281,-2.113282 -2.91797,-3.90625 l 0.66016,-2.523438 c 0.46484,-1.792968 2.52343,-2.972656 4.59375,-2.640625 l 2.92187,0.472657 c 2.07031,0.332031 3.375,2.082031 2.91406,3.902343 z m 0,0"
       id="path4428"
       inkscape:connector-curvature="0" />
    <path
       style="fill:#ffffff;fill-opacity:1;fill-rule:nonzero;stroke:none"
       d="m 278.80078,60.765625 c -0.46094,1.816406 -2.52344,2.972656 -4.60547,2.578125 l -2.93359,-0.558594 c -2.08203,-0.398437 -3.39453,-2.175781 -2.92578,-3.964844 l 0.65625,-2.527343 c 0.46875,-1.792969 2.52734,-2.945313 4.60937,-2.578125 l 2.92578,0.519531 c 2.07813,0.367187 3.38672,2.140625 2.92578,3.960937 z m 0,0"
       id="path4430"
       inkscape:connector-curvature="0" />
    <path
       style="fill:#ffffff;fill-opacity:1;fill-rule:nonzero;stroke:none"
       d="m 276.20703,71.003906 c -0.46094,1.816406 -2.52734,2.945313 -4.61719,2.519532 l -2.9414,-0.605469 c -2.08985,-0.433594 -3.40235,-2.230469 -2.9375,-4.023438 l 0.66015,-2.527343 c 0.46485,-1.792969 2.53125,-2.921876 4.61719,-2.519532 l 2.93359,0.5625 c 2.08204,0.40625 3.39844,2.203125 2.9375,4.027344 z m 0,0"
       id="path4432"
       inkscape:connector-curvature="0" />
    <path
       style="fill:#ffffff;fill-opacity:1;fill-rule:nonzero;stroke:none"
       d="m 273.61328,81.242188 c -0.46484,1.820312 -2.53125,2.921874 -4.62891,2.457031 l -2.94921,-0.648438 c -2.09375,-0.464843 -3.41407,-2.292969 -2.94532,-4.085937 l 0.65625,-2.523438 c 0.46485,-1.792968 2.53907,-2.894531 4.62891,-2.460937 l 2.94141,0.613281 c 2.08984,0.433594 3.40625,2.257812 2.94531,4.082031 z m 0,0"
       id="path4434"
       inkscape:connector-curvature="0" />
    <path
       style="fill:#ffffff;fill-opacity:1;fill-rule:nonzero;stroke:none"
       d="m 271.01562,91.480469 c -0.46093,1.820312 -2.53906,2.894531 -4.63671,2.398437 l -2.95704,-0.699218 c -2.10156,-0.496094 -3.42578,-2.347657 -2.95703,-4.140626 l 0.65625,-2.527343 c 0.46875,-1.789063 2.54297,-2.863281 4.64063,-2.394531 l 2.94922,0.65625 c 2.09375,0.464843 3.41797,2.320312 2.95703,4.140624 z m 0,0"
       id="path4436"
       inkscape:connector-curvature="0" />
    <path
       style="fill:#ffffff;fill-opacity:1;fill-rule:nonzero;stroke:none"
       d="m 268.42187,101.71875 c -0.46093,1.82031 -2.54296,2.87109 -4.64843,2.34375 l -2.96485,-0.75 c -2.10547,-0.52734 -3.43359,-2.41016 -2.96875,-4.203125 L 258.5,96.589844 c 0.46484,-1.796875 2.54687,-2.84375 4.64844,-2.34375 l 2.95703,0.703125 c 2.10156,0.5 3.42969,2.378906 2.96875,4.203125 z m 0,0"
       id="path4438"
       inkscape:connector-curvature="0" />
    <path
       style="fill:#ffffff;fill-opacity:1;fill-rule:nonzero;stroke:none"
       d="m 265.82812,111.95703 c -0.46093,1.82422 -2.54687,2.84375 -4.65625,2.28125 l -2.97656,-0.79297 c -2.10937,-0.5625 -3.4414,-2.46875 -2.97656,-4.26172 l 0.65625,-2.52343 c 0.46875,-1.79297 2.55469,-2.8125 4.66016,-2.28125 l 2.96875,0.75 c 2.10156,0.53515 3.43359,2.4414 2.97265,4.26562 z m 0,0"
       id="path4440"
       inkscape:connector-curvature="0" />
    <path
       style="fill:#ffffff;fill-opacity:1;fill-rule:nonzero;stroke:none"
       d="m 263.23437,122.19922 c -0.46484,1.82031 -2.55468,2.8125 -4.67187,2.21875 l -2.98047,-0.83984 c -2.11719,-0.59375 -3.45312,-2.52735 -2.98437,-4.32032 l 0.65234,-2.52734 c 0.46875,-1.78906 2.55859,-2.78516 4.67187,-2.21875 l 2.97266,0.79687 c 2.11328,0.56641 3.44922,2.5 2.98828,4.32422 z m 0,0"
       id="path4442"
       inkscape:connector-curvature="0" />
    <path
       style="fill:#ffffff;fill-opacity:1;fill-rule:nonzero;stroke:none"
       d="m 260.63672,132.4375 c -0.46094,1.82031 -2.55469,2.78906 -4.67969,2.16016 l -2.98828,-0.88282 c -2.12109,-0.6289 -3.46484,-2.59375 -2.99609,-4.38672 l 0.65625,-2.52343 c 0.46875,-1.79297 2.5625,-2.75781 4.67968,-2.16016 l 2.98047,0.84375 c 2.1211,0.59766 3.46094,2.5625 3,4.38281 z m 0,0"
       id="path4444"
       inkscape:connector-curvature="0" />
    <path
       style="fill:#ffffff;fill-opacity:1;fill-rule:nonzero;stroke:none"
       d="m 295.63281,42.085938 c -0.45703,1.855468 -2.50781,3.09375 -4.57422,2.761718 l -2.92187,-0.46875 c -2.07031,-0.332031 -3.37891,-2.078125 -2.91406,-3.90625 l 0.64843,-2.570312 c 0.46094,-1.820313 2.51172,-3.058594 4.57813,-2.757813 l 2.91015,0.425781 c 2.06641,0.300782 3.375,2.046876 2.91797,3.90625 z m 0,0"
       id="path4446"
       inkscape:connector-curvature="0" />
    <path
       style="fill:#ffffff;fill-opacity:1;fill-rule:nonzero;stroke:none"
       d="m 293.07031,52.511719 c -0.45703,1.855469 -2.51172,3.0625 -4.58984,2.695312 l -2.92188,-0.507812 c -2.07812,-0.367188 -3.39062,-2.140625 -2.92968,-3.964844 l 0.65234,-2.574219 c 0.46094,-1.820312 2.51172,-3.03125 4.58594,-2.695312 l 2.91797,0.46875 c 2.07031,0.335937 3.38281,2.109375 2.92578,3.964844 z m 0,0"
       id="path4448"
       inkscape:connector-curvature="0" />
    <path
       style="fill:#ffffff;fill-opacity:1;fill-rule:nonzero;stroke:none"
       d="m 290.50391,62.9375 c -0.45313,1.851562 -2.51172,3.035156 -4.59375,2.636719 l -2.9336,-0.558594 c -2.08594,-0.394531 -3.39844,-2.199219 -2.9375,-4.023437 l 0.64844,-2.570313 c 0.46094,-1.824219 2.51953,-3.007813 4.59766,-2.640625 l 2.92578,0.519531 c 2.07812,0.363281 3.39453,2.167969 2.9375,4.023438 z m 0,0"
       id="path4450"
       inkscape:connector-curvature="0" />
    <path
       style="fill:#ffffff;fill-opacity:1;fill-rule:nonzero;stroke:none"
       d="m 287.94141,73.363281 c -0.45313,1.851563 -2.51954,3.007813 -4.60547,2.578125 l -2.94532,-0.605468 C 278.30469,74.90625 276.98828,73.078125 277.44531,71.25 l 0.64844,-2.570312 c 0.46094,-1.824219 2.52734,-2.980469 4.60937,-2.582032 l 2.9375,0.570313 c 2.08204,0.394531 3.39844,2.226562 2.94532,4.082031 z m 0,0"
       id="path4452"
       inkscape:connector-curvature="0" />
    <path
       style="fill:#ffffff;fill-opacity:1;fill-rule:nonzero;stroke:none"
       d="m 285.37891,83.785156 c -0.45704,1.855469 -2.52344,2.984375 -4.61719,2.519532 L 277.8125,85.65625 c -2.09375,-0.464844 -3.41797,-2.320312 -2.95703,-4.144531 l 0.64844,-2.574219 c 0.46093,-1.824219 2.52734,-2.953125 4.61718,-2.519531 l 2.94532,0.613281 c 2.08984,0.433594 3.41015,2.285156 2.95703,4.144531 z m 0,0"
       id="path4454"
       inkscape:connector-curvature="0" />
    <path
       style="fill:#ffffff;fill-opacity:1;fill-rule:nonzero;stroke:none"
       d="m 282.81641,94.214844 c -0.45704,1.851562 -2.52735,2.949218 -4.62891,2.457031 l -2.95703,-0.699219 c -2.09766,-0.496094 -3.42969,-2.378906 -2.96875,-4.203125 l 0.65234,-2.574219 c 0.45703,-1.824218 2.53125,-2.921874 4.625,-2.457031 l 2.95313,0.65625 c 2.09375,0.46875 3.42187,2.347657 2.96875,4.203125 z m 0,0"
       id="path4456"
       inkscape:connector-curvature="0" />
    <path
       style="fill:#ffffff;fill-opacity:1;fill-rule:nonzero;stroke:none"
       d="m 280.25391,104.63672 c -0.45704,1.85547 -2.53516,2.92969 -4.64063,2.40234 l -2.96484,-0.74609 c -2.10547,-0.53125 -3.4375,-2.44141 -2.97657,-4.26563 l 0.64844,-2.570309 c 0.46094,-1.824219 2.53906,-2.898437 4.63672,-2.398437 l 2.96094,0.703125 c 2.09765,0.5 3.43359,2.410161 2.97656,4.261721 z m 0,0"
       id="path4458"
       inkscape:connector-curvature="0" />
    <path
       style="fill:#ffffff;fill-opacity:1;fill-rule:nonzero;stroke:none"
       d="m 277.6875,115.0625 c -0.45703,1.85547 -2.53516,2.90234 -4.64453,2.33984 l -2.97656,-0.79296 c -2.10938,-0.5625 -3.44532,-2.5 -2.98438,-4.32032 l 0.64844,-2.57422 c 0.46094,-1.82421 2.53906,-2.87109 4.64453,-2.33984 l 2.96875,0.75 c 2.10547,0.53516 3.44531,2.46875 2.98828,4.32422 z m 0,0"
       id="path4460"
       inkscape:connector-curvature="0" />
    <path
       style="fill:#ffffff;fill-opacity:1;fill-rule:nonzero;stroke:none"
       d="m 275.125,125.48828 c -0.45703,1.85547 -2.54297,2.875 -4.65625,2.27735 l -2.98438,-0.83985 c -2.11328,-0.59375 -3.45703,-2.55469 -2.99609,-4.3789 l 0.64844,-2.57422 c 0.46094,-1.82422 2.54687,-2.84375 4.65625,-2.27735 l 2.97656,0.79688 c 2.11328,0.5664 3.45313,2.52734 2.99609,4.38281 z m 0,0"
       id="path4462"
       inkscape:connector-curvature="0" />
    <path
       style="fill:#ffffff;fill-opacity:1;fill-rule:nonzero;stroke:none"
       d="m 272.5625,135.91016 c -0.45313,1.85546 -2.54688,2.85156 -4.66797,2.22265 l -2.98828,-0.88672 c -2.125,-0.6289 -3.47266,-2.61718 -3.00781,-4.4414 l 0.64843,-2.57032 c 0.46094,-1.82421 2.55079,-2.82031 4.66407,-2.22265 l 2.98828,0.84375 c 2.11328,0.60156 3.46094,2.58984 3.0039,4.44531 z m 0,0"
       id="path4464"
       inkscape:connector-curvature="0" />
    <path
       style="fill:#ffffff;fill-opacity:1;fill-rule:nonzero;stroke:none"
       d="m 270,146.33594 c -0.45703,1.85547 -2.55078,2.82422 -4.67969,2.16406 l -2.99609,-0.93359 c -2.12891,-0.66016 -3.48047,-2.67969 -3.01953,-4.50391 l 0.64843,-2.57031 c 0.46094,-1.82422 2.5586,-2.79297 4.67969,-2.16016 l 2.98828,0.89063 c 2.125,0.63281 3.47657,2.64843 3.01953,4.5039 z m 0,0"
       id="path4466"
       inkscape:connector-curvature="0" />
    <path
       style="fill:#ffffff;fill-opacity:1;fill-rule:nonzero;stroke:none"
       d="m 304.74219,54.496094 c -0.44922,1.890625 -2.5,3.125 -4.57813,2.761718 l -2.92578,-0.511718 c -2.07812,-0.363282 -3.39453,-2.167969 -2.9375,-4.023438 l 0.64453,-2.617187 c 0.45313,-1.859375 2.5,-3.09375 4.57422,-2.761719 l 2.91797,0.472656 c 2.07422,0.332032 3.39062,2.132813 2.9375,4.023438 z m 0,0"
       id="path4468"
       inkscape:connector-curvature="0" />
    <path
       style="fill:#ffffff;fill-opacity:1;fill-rule:nonzero;stroke:none"
       d="m 302.20703,65.109375 c -0.44531,1.890625 -2.5,3.097656 -4.58594,2.699219 L 294.6875,67.25 c -2.08203,-0.398438 -3.40234,-2.226562 -2.94531,-4.082031 l 0.64062,-2.621094 c 0.45703,-1.855469 2.50781,-3.066406 4.58985,-2.699219 l 2.92578,0.519532 c 2.07812,0.367187 3.39453,2.195312 2.94531,4.085937 z m 0,0"
       id="path4470"
       inkscape:connector-curvature="0" />
    <path
       style="fill:#ffffff;fill-opacity:1;fill-rule:nonzero;stroke:none"
       d="m 299.67578,75.722656 c -0.44922,1.886719 -2.50781,3.066406 -4.59766,2.636719 l -2.9375,-0.605469 c -2.08984,-0.429687 -3.41406,-2.285156 -2.95703,-4.144531 l 0.64063,-2.617187 c 0.45312,-1.855469 2.51172,-3.042969 4.59765,-2.636719 l 2.9375,0.5625 c 2.08204,0.402343 3.40235,2.257812 2.95313,4.144531 z m 0,0"
       id="path4472"
       inkscape:connector-curvature="0" />
    <path
       style="fill:#ffffff;fill-opacity:1;fill-rule:nonzero;stroke:none"
       d="m 297.14453,86.332031 c -0.44922,1.886719 -2.51172,3.042969 -4.60547,2.578125 l -2.94922,-0.648437 c -2.09375,-0.464844 -3.42187,-2.347657 -2.96875,-4.207031 l 0.64063,-2.617188 c 0.45703,-1.859375 2.51953,-3.011719 4.60937,-2.578125 l 2.94141,0.609375 c 2.08984,0.433594 3.41797,2.316406 2.96875,4.203125 z m 0,0"
       id="path4474"
       inkscape:connector-curvature="0" />
    <path
       style="fill:#ffffff;fill-opacity:1;fill-rule:nonzero;stroke:none"
       d="m 294.61328,96.941406 c -0.44922,1.890625 -2.51953,3.019532 -4.61719,2.519532 l -2.95312,-0.699219 C 284.9375,98.265625 283.60547,96.359375 284.05859,94.5 l 0.64453,-2.617188 c 0.45313,-1.855468 2.52344,-2.988281 4.61719,-2.519531 l 2.95313,0.65625 c 2.08984,0.46875 3.42578,2.378907 2.97656,4.261719 z m 0,0"
       id="path4476"
       inkscape:connector-curvature="0" />
    <path
       style="fill:#ffffff;fill-opacity:1;fill-rule:nonzero;stroke:none"
       d="m 292.08203,107.55469 c -0.44922,1.88672 -2.52344,2.98828 -4.62891,2.46094 l -2.96484,-0.7461 c -2.10547,-0.53125 -3.44141,-2.46484 -2.98828,-4.32422 l 0.64062,-2.61718 c 0.45704,-1.85938 2.53125,-2.960942 4.63282,-2.460942 l 2.95703,0.703122 c 2.09765,0.5 3.4375,2.4375 2.98437,4.32813 z m 0,0"
       id="path4478"
       inkscape:connector-curvature="0" />
    <path
       style="fill:#ffffff;fill-opacity:1;fill-rule:nonzero;stroke:none"
       d="m 289.55078,118.16406 c -0.44922,1.89063 -2.52734,2.96485 -4.63672,2.40235 l -2.97265,-0.79297 c -2.11329,-0.5625 -3.45704,-2.52735 -3,-4.38281 l 0.64062,-2.61719 c 0.45703,-1.85938 2.53125,-2.9336 4.64063,-2.40235 l 2.96484,0.75 c 2.10547,0.53516 3.44531,2.5 2.99609,4.38672 z m 0,0"
       id="path4480"
       inkscape:connector-curvature="0" />
    <path
       style="fill:#ffffff;fill-opacity:1;fill-rule:nonzero;stroke:none"
       d="m 287.01953,128.77734 c -0.45312,1.88672 -2.53125,2.9336 -4.64844,2.33985 l -2.98437,-0.83985 c -2.11328,-0.59375 -3.46094,-2.58203 -3.00391,-4.44531 l 0.64063,-2.61328 c 0.45312,-1.85937 2.53515,-2.90625 4.64843,-2.33984 l 2.97657,0.79687 c 2.10547,0.56641 3.45312,2.55469 3.0039,4.44141 z m 0,0"
       id="path4482"
       inkscape:connector-curvature="0" />
    <path
       style="fill:#ffffff;fill-opacity:1;fill-rule:nonzero;stroke:none"
       d="m 284.48437,139.38672 c -0.44921,1.88672 -2.53515,2.91015 -4.65625,2.28125 l -2.98828,-0.88672 c -2.12109,-0.62891 -3.47265,-2.64453 -3.01953,-4.50391 l 0.64453,-2.61718 c 0.45313,-1.85547 2.53907,-2.87891 4.65625,-2.27735 l 2.98047,0.84375 c 2.11719,0.59766 3.46875,2.61328 3.01953,4.50391 z m 0,0"
       id="path4484"
       inkscape:connector-curvature="0" />
    <path
       style="fill:#ffffff;fill-opacity:1;fill-rule:nonzero;stroke:none"
       d="m 281.95312,149.99609 c -0.44921,1.89063 -2.53906,2.88282 -4.66796,2.22266 l -2.9961,-0.92969 c -2.1289,-0.66406 -3.48437,-2.70703 -3.02734,-4.5625 l 0.64062,-2.62109 c 0.45703,-1.85547 2.54688,-2.85156 4.66797,-2.21875 l 2.98828,0.89062 c 2.125,0.63282 3.48047,2.67578 3.03125,4.5625 z m 0,0"
       id="path4486"
       inkscape:connector-curvature="0" />
    <path
       style="fill:#ffffff;fill-opacity:1;fill-rule:nonzero;stroke:none"
       d="m 279.42187,160.60937 c -0.44921,1.88672 -2.54687,2.85547 -4.67968,2.16016 l -3,-0.97656 c -2.13672,-0.69531 -3.5,-2.76563 -3.03907,-4.625 l 0.64063,-2.61719 c 0.45703,-1.85547 2.55078,-2.82422 4.67578,-2.16016 l 3,0.9375 c 2.125,0.66797 3.48828,2.73438 3.03906,4.625 z m 0,0"
       id="path4488"
       inkscape:connector-curvature="0" />
    <path
       style="fill:#ffffff;fill-opacity:1;fill-rule:nonzero;stroke:none"
       d="m 323.91406,24.09375 c -0.44531,1.921875 -2.47656,3.265625 -4.53515,3 l -2.90235,-0.371094 c -2.0625,-0.269531 -3.36719,-2.019531 -2.91797,-3.90625 l 0.63282,-2.664062 c 0.45312,-1.890625 2.48437,-3.234375 4.53906,-3 l 2.89062,0.332031 c 2.0586,0.234375 3.36328,1.984375 2.92188,3.90625 z m 0,0"
       id="path4490"
       inkscape:connector-curvature="0" />
    <path
       style="fill:#ffffff;fill-opacity:1;fill-rule:nonzero;stroke:none"
       d="m 321.41406,34.890625 c -0.44531,1.921875 -2.48047,3.238281 -4.54687,2.9375 l -2.91016,-0.417969 c -2.06641,-0.296875 -3.375,-2.074218 -2.92578,-3.964844 l 0.63281,-2.664062 c 0.44922,-1.886719 2.48438,-3.207031 4.54688,-2.9375 l 2.89843,0.378906 c 2.06641,0.265625 3.375,2.042969 2.92969,3.964844 z m 0,0"
       id="path4492"
       inkscape:connector-curvature="0" />
    <path
       style="fill:#ffffff;fill-opacity:1;fill-rule:nonzero;stroke:none"
       d="m 318.91406,45.6875 c -0.44531,1.921875 -2.48437,3.210938 -4.55859,2.878906 l -2.91797,-0.464844 c -2.07031,-0.332031 -3.38281,-2.132812 -2.93359,-4.023437 l 0.6289,-2.664063 c 0.45313,-1.890624 2.49219,-3.179687 4.5586,-2.878906 l 2.91015,0.421875 c 2.06641,0.300781 3.38281,2.105469 2.9375,4.027344 z m 0,0"
       id="path4494"
       inkscape:connector-curvature="0" />
    <path
       style="fill:#ffffff;fill-opacity:1;fill-rule:nonzero;stroke:none"
       d="m 316.41406,56.484375 c -0.44531,1.921875 -2.48828,3.183594 -4.5664,2.820313 l -2.92579,-0.511719 c -2.07812,-0.367188 -3.39843,-2.195313 -2.94531,-4.085938 l 0.63281,-2.664062 c 0.44532,-1.886719 2.49219,-3.152344 4.5625,-2.820313 l 2.92188,0.476563 c 2.07031,0.332031 3.39062,2.160156 2.94531,4.078125 z m 0,0"
       id="path4496"
       inkscape:connector-curvature="0" />
    <path
       style="fill:#ffffff;fill-opacity:1;fill-rule:nonzero;stroke:none"
       d="m 313.91406,67.28125 c -0.44531,1.921875 -2.49609,3.15625 -4.57812,2.757812 l -2.9336,-0.558593 c -2.08593,-0.394531 -3.40625,-2.25 -2.95703,-4.140625 l 0.63281,-2.664063 c 0.44922,-1.890625 2.5,-3.128906 4.57813,-2.757812 l 2.92578,0.515625 c 2.07813,0.367187 3.40234,2.222656 2.95703,4.144531 z m 0,0"
       id="path4498"
       inkscape:connector-curvature="0" />
    <path
       style="fill:#ffffff;fill-opacity:1;fill-rule:nonzero;stroke:none"
       d="m 311.41406,78.078125 c -0.44531,1.921875 -2.5,3.132813 -4.58984,2.699219 l -2.9375,-0.601563 c -2.08985,-0.433593 -3.41797,-2.316406 -2.97266,-4.203125 l 0.63672,-2.664062 c 0.44922,-1.894532 2.50391,-3.101563 4.58594,-2.703125 l 2.93359,0.566406 c 2.08594,0.398437 3.41406,2.285156 2.96875,4.203125 z m 0,0"
       id="path4500"
       inkscape:connector-curvature="0" />
    <path
       style="fill:#ffffff;fill-opacity:1;fill-rule:nonzero;stroke:none"
       d="m 308.91016,88.875 c -0.44532,1.925781 -2.5,3.101562 -4.59766,2.640625 l -2.94922,-0.652344 c -2.09375,-0.464843 -3.42578,-2.371093 -2.97266,-4.261719 l 0.62891,-2.664062 c 0.45313,-1.890625 2.50781,-3.074219 4.59766,-2.640625 l 2.9414,0.609375 c 2.08985,0.4375 3.42578,2.34375 2.98047,4.265625 z m 0,0"
       id="path4502"
       inkscape:connector-curvature="0" />
    <path
       style="fill:#ffffff;fill-opacity:1;fill-rule:nonzero;stroke:none"
       d="m 306.41016,99.671875 c -0.44141,1.921875 -2.50782,3.074215 -4.60547,2.582035 l -2.95703,-0.69922 c -2.10157,-0.4961 -3.4375,-2.433596 -2.98829,-4.320315 l 0.63282,-2.667969 c 0.44922,-1.890625 2.51172,-3.042968 4.60937,-2.578125 l 2.94922,0.65625 c 2.09375,0.464844 3.43359,2.402344 2.98828,4.324219 z m 0,0"
       id="path4504"
       inkscape:connector-curvature="0" />
    <path
       style="fill:#ffffff;fill-opacity:1;fill-rule:nonzero;stroke:none"
       d="m 303.91016,110.47266 c -0.44141,1.91797 -2.51172,3.04687 -4.61719,2.51953 l -2.96485,-0.7461 c -2.10546,-0.53125 -3.44531,-2.49609 -2.99609,-4.38281 l 0.63281,-2.66406 c 0.44922,-1.89453 2.51563,-3.01953 4.61719,-2.51953 l 2.95703,0.70312 c 2.10156,0.5 3.44531,2.46094 2.9961,4.38282 z m 0,0"
       id="path4506"
       inkscape:connector-curvature="0" />
    <path
       style="fill:#ffffff;fill-opacity:1;fill-rule:nonzero;stroke:none"
       d="m 301.41406,121.26563 c -0.44531,1.92187 -2.51953,3.02343 -4.63281,2.46093 l -2.97266,-0.79297 c -2.10937,-0.55859 -3.45703,-2.55078 -3.00781,-4.4414 l 0.63672,-2.66406 c 0.44922,-1.89063 2.51953,-2.99219 4.625,-2.45704 l 2.96484,0.75 c 2.10938,0.53125 3.45703,2.51954 3.01172,4.44141 z m 0,0"
       id="path4508"
       inkscape:connector-curvature="0" />
    <path
       style="fill:#ffffff;fill-opacity:1;fill-rule:nonzero;stroke:none"
       d="m 298.91016,132.06641 c -0.44532,1.91796 -2.51954,2.99609 -4.64063,2.39843 l -2.97656,-0.83593 c -2.11719,-0.59766 -3.46875,-2.61329 -3.01953,-4.50391 l 0.63281,-2.66406 c 0.44922,-1.89063 2.52734,-2.96875 4.64062,-2.40235 l 2.97266,0.80079 c 2.10938,0.5625 3.46484,2.58203 3.01953,4.5039 z m 0,0"
       id="path4510"
       inkscape:connector-curvature="0" />
    <path
       style="fill:#ffffff;fill-opacity:1;fill-rule:nonzero;stroke:none"
       d="m 296.41016,142.86328 c -0.44532,1.91797 -2.52735,2.96875 -4.64844,2.33984 l -2.98828,-0.88671 c -2.125,-0.62891 -3.47657,-2.67188 -3.02735,-4.5625 l 0.63282,-2.66407 c 0.44921,-1.89062 2.53125,-2.9375 4.64843,-2.33984 l 2.98047,0.84375 c 2.1211,0.59766 3.47266,2.64062 3.02735,4.5625 z m 0,0"
       id="path4512"
       inkscape:connector-curvature="0" />
    <path
       style="fill:#ffffff;fill-opacity:1;fill-rule:nonzero;stroke:none"
       d="m 293.91016,153.66016 c -0.44532,1.91796 -2.52735,2.9414 -4.65625,2.27734 l -2.9961,-0.92969 c -2.1289,-0.66015 -3.49219,-2.73047 -3.03906,-4.62109 l 0.62891,-2.66406 c 0.45312,-1.89063 2.53906,-2.91407 4.66015,-2.28125 l 2.98828,0.89062 c 2.125,0.63281 3.48438,2.69922 3.04297,4.625 z m 0,0"
       id="path4514"
       inkscape:connector-curvature="0" />
    <path
       style="fill:#ffffff;fill-opacity:1;fill-rule:nonzero;stroke:none"
       d="m 291.40625,164.45703 c -0.44141,1.92188 -2.53125,2.91406 -4.66406,2.21875 l -3.00782,-0.97656 c -2.13281,-0.69531 -3.49609,-2.79297 -3.04687,-4.6836 l 0.63281,-2.66406 c 0.44922,-1.89062 2.53906,-2.88672 4.66797,-2.21875 l 2.99609,0.9336 c 2.13282,0.66796 3.4961,2.76562 3.05469,4.68359 z m 0,0"
       id="path4516"
       inkscape:connector-curvature="0" />
    <path
       style="fill:#ffffff;fill-opacity:1;fill-rule:nonzero;stroke:none"
       d="m 330.55469,47.492188 c -0.4375,1.953124 -2.47657,3.269531 -4.54688,2.933593 l -2.91797,-0.460937 c -2.07031,-0.332032 -3.39062,-2.164063 -2.94531,-4.085938 l 0.625,-2.710937 c 0.44141,-1.921875 2.48047,-3.238281 4.54688,-2.9375 l 2.91015,0.425781 c 2.06641,0.300781 3.38672,2.128906 2.94922,4.082031 z m 0,0"
       id="path4518"
       inkscape:connector-curvature="0" />
    <path
       style="fill:#ffffff;fill-opacity:1;fill-rule:nonzero;stroke:none"
       d="m 328.08594,58.472656 c -0.4375,1.953125 -2.48047,3.242188 -4.5586,2.878906 l -2.92187,-0.511718 c -2.07813,-0.363282 -3.40625,-2.222656 -2.95703,-4.144532 l 0.625,-2.707031 c 0.4414,-1.925781 2.48437,-3.214843 4.55468,-2.882812 l 2.91797,0.472656 c 2.07032,0.332031 3.39844,2.1875 2.95703,4.144531 z m 0,0"
       id="path4520"
       inkscape:connector-curvature="0" />
    <path
       style="fill:#ffffff;fill-opacity:1;fill-rule:nonzero;stroke:none"
       d="m 325.61719,69.457031 c -0.4375,1.953125 -2.48438,3.214844 -4.56641,2.816407 l -2.93359,-0.554688 c -2.08203,-0.398438 -3.41016,-2.285156 -2.96875,-4.207031 l 0.625,-2.710938 c 0.44531,-1.921875 2.48828,-3.1875 4.57031,-2.820312 L 323.26562,62.5 c 2.08204,0.367188 3.41016,2.25 2.96875,4.203125 z m 0,0"
       id="path4522"
       inkscape:connector-curvature="0" />
    <path
       style="fill:#ffffff;fill-opacity:1;fill-rule:nonzero;stroke:none"
       d="m 323.14844,80.441406 c -0.4375,1.949219 -2.48828,3.1875 -4.57813,2.757813 l -2.9414,-0.609375 c -2.08594,-0.425782 -3.42188,-2.335938 -2.97657,-4.261719 l 0.625,-2.707031 c 0.44141,-1.925782 2.49219,-3.164063 4.57422,-2.761719 l 2.9375,0.5625 c 2.08203,0.402344 3.41797,2.3125 2.97656,4.265625 z m 0,0"
       id="path4524"
       inkscape:connector-curvature="0" />
    <path
       style="fill:#ffffff;fill-opacity:1;fill-rule:nonzero;stroke:none"
       d="m 320.67969,91.425781 c -0.4375,1.953125 -2.49219,3.160157 -4.58594,2.695313 l -2.94922,-0.652344 c -2.09766,-0.460938 -3.43359,-2.398438 -2.98828,-4.324219 l 0.625,-2.707031 c 0.44141,-1.925781 2.5,-3.132812 4.58594,-2.703125 l 2.9414,0.609375 c 2.08985,0.433594 3.42969,2.375 2.98828,4.328125 z m 0,0"
       id="path4526"
       inkscape:connector-curvature="0" />
    <path
       style="fill:#ffffff;fill-opacity:1;fill-rule:nonzero;stroke:none"
       d="m 318.21094,102.40625 c -0.4375,1.95313 -2.4961,3.13672 -4.59766,2.63672 l -2.95703,-0.69922 c -2.09766,-0.49609 -3.44531,-2.45703 -2.99609,-4.382812 l 0.625,-2.707032 c 0.4414,-1.925781 2.5,-3.109375 4.59765,-2.640625 l 2.94922,0.652344 c 2.09375,0.46875 3.4375,2.433594 2.99609,4.386719 z m 0,0"
       id="path4528"
       inkscape:connector-curvature="0" />
    <path
       style="fill:#ffffff;fill-opacity:1;fill-rule:nonzero;stroke:none"
       d="m 315.74219,113.39063 c -0.4375,1.95312 -2.50391,3.10546 -4.60938,2.57812 l -2.96484,-0.74609 c -2.10156,-0.53125 -3.44922,-2.51953 -3.00781,-4.44532 l 0.625,-2.70703 c 0.44531,-1.92578 2.51171,-3.08203 4.60937,-2.58203 l 2.95703,0.70313 c 2.09766,0.5 3.44922,2.49218 3.01172,4.44531 z m 0,0"
       id="path4530"
       inkscape:connector-curvature="0" />
    <path
       style="fill:#ffffff;fill-opacity:1;fill-rule:nonzero;stroke:none"
       d="m 313.27344,124.37109 c -0.4375,1.95313 -2.50782,3.08204 -4.61719,2.51954 l -2.97656,-0.79297 c -2.10547,-0.5625 -3.46094,-2.57813 -3.01563,-4.50391 l 0.625,-2.70703 c 0.44531,-1.92578 2.51172,-3.05469 4.61719,-2.51953 l 2.96875,0.75 c 2.10547,0.53125 3.45703,2.54687 3.01562,4.5039 z m 0,0"
       id="path4532"
       inkscape:connector-curvature="0" />
    <path
       style="fill:#ffffff;fill-opacity:1;fill-rule:nonzero;stroke:none"
       d="m 310.80469,135.35547 c -0.44141,1.95312 -2.51172,3.05469 -4.62891,2.46094 l -2.97656,-0.83985 c -2.1211,-0.59765 -3.47656,-2.63672 -3.03516,-4.5625 l 0.625,-2.71094 c 0.44922,-1.92187 2.52344,-3.02734 4.63281,-2.46093 l 2.97266,0.79687 c 2.10938,0.56641 3.46875,2.60938 3.03125,4.5625 z m 0,0"
       id="path4534"
       inkscape:connector-curvature="0" />
    <path
       style="fill:#ffffff;fill-opacity:1;fill-rule:nonzero;stroke:none"
       d="m 308.33594,146.33594 c -0.4375,1.95312 -2.51953,3.03125 -4.63672,2.40234 l -2.99219,-0.88672 c -2.12109,-0.625 -3.48047,-2.69922 -3.03906,-4.62109 l 0.6289,-2.71094 c 0.44141,-1.92578 2.51954,-3 4.63672,-2.39844 l 2.98438,0.83985 c 2.11328,0.60156 3.47656,2.67187 3.03515,4.625 z m 0,0"
       id="path4536"
       inkscape:connector-curvature="0" />
    <path
       style="fill:#ffffff;fill-opacity:1;fill-rule:nonzero;stroke:none"
       d="m 305.86719,157.32422 c -0.4375,1.94922 -2.51953,3 -4.64844,2.33594 l -2.99609,-0.92969 c -2.125,-0.66406 -3.4961,-2.75781 -3.05079,-4.6836 l 0.625,-2.71093 c 0.44532,-1.92188 2.52735,-2.97266 4.64844,-2.33985 l 2.99219,0.89063 c 2.12109,0.63281 3.48828,2.72656 3.04687,4.68359 z m 0,0"
       id="path4538"
       inkscape:connector-curvature="0" />
    <path
       style="fill:#ffffff;fill-opacity:1;fill-rule:nonzero;stroke:none"
       d="m 303.39844,168.30469 c -0.4375,1.95312 -2.52344,2.97265 -4.65625,2.28125 l -3.00782,-0.98047 c -2.13281,-0.69531 -3.5039,-2.82031 -3.05859,-4.74219 l 0.625,-2.71094 c 0.44531,-1.92578 2.53125,-2.94531 4.66016,-2.28125 l 3,0.9375 c 2.125,0.66407 3.49609,2.78907 3.05468,4.74219 z m 0,0"
       id="path4540"
       inkscape:connector-curvature="0" />
    <path
       style="fill:#ffffff;fill-opacity:1;fill-rule:nonzero;stroke:none"
       d="m 337.32031,71.628906 c -0.43359,1.984375 -2.47265,3.273438 -4.55859,2.878906 l -2.9336,-0.5625 c -2.08203,-0.394531 -3.41406,-2.300781 -2.97656,-4.257812 l 0.61719,-2.757812 c 0.4375,-1.957032 2.48047,-3.25 4.55859,-2.878907 l 2.92578,0.515625 c 2.07813,0.367188 3.41016,2.277344 2.97657,4.261719 z m 0,0"
       id="path4542"
       inkscape:connector-curvature="0" />
    <path
       style="fill:#ffffff;fill-opacity:1;fill-rule:nonzero;stroke:none"
       d="m 334.88281,82.800781 c -0.43359,1.984375 -2.48047,3.25 -4.5664,2.816407 L 327.375,85.011719 c -2.08984,-0.429688 -3.42969,-2.367188 -2.98828,-4.324219 l 0.61719,-2.753906 c 0.4375,-1.957032 2.48437,-3.222656 4.5664,-2.820313 l 2.9375,0.5625 c 2.08203,0.398438 3.42188,2.339844 2.98438,4.324219 z m 0,0"
       id="path4544"
       inkscape:connector-curvature="0" />
    <path
       style="fill:#ffffff;fill-opacity:1;fill-rule:nonzero;stroke:none"
       d="m 332.44531,93.964844 c -0.43359,1.988281 -2.48047,3.226562 -4.57422,2.761718 l -2.95312,-0.652343 c -2.09375,-0.464844 -3.4375,-2.425781 -2.9961,-4.382813 l 0.61719,-2.757812 c 0.4375,-1.957032 2.48828,-3.191406 4.57813,-2.757813 l 2.9414,0.609375 c 2.08985,0.433594 3.42969,2.398438 2.9961,4.382813 z m 0,0"
       id="path4546"
       inkscape:connector-curvature="0" />
    <path
       style="fill:#ffffff;fill-opacity:1;fill-rule:nonzero;stroke:none"
       d="m 330.00781,105.13672 c -0.43359,1.98828 -2.48828,3.19531 -4.58594,2.69922 l -2.95703,-0.69922 c -2.10156,-0.49609 -3.44922,-2.48828 -3.01172,-4.44531 l 0.6211,-2.757816 c 0.4375,-1.957032 2.49219,-3.164063 4.58594,-2.699219 l 2.95312,0.65625 c 2.09375,0.46875 3.4375,2.457035 3.00391,4.445315 z m 0,0"
       id="path4548"
       inkscape:connector-curvature="0" />
    <path
       style="fill:#ffffff;fill-opacity:1;fill-rule:nonzero;stroke:none"
       d="m 327.57031,116.30469 c -0.43359,1.98828 -2.49219,3.16797 -4.59765,2.64062 l -2.96485,-0.74609 c -2.10547,-0.52734 -3.45312,-2.54688 -3.01953,-4.50391 l 0.61719,-2.75781 c 0.4414,-1.95703 2.5,-3.13672 4.60156,-2.63672 l 2.95703,0.70313 c 2.09766,0.5 3.45313,2.51562 3.01563,4.5039 z m 0,0"
       id="path4550"
       inkscape:connector-curvature="0" />
    <path
       style="fill:#ffffff;fill-opacity:1;fill-rule:nonzero;stroke:none"
       d="m 325.13281,127.47266 c -0.43359,1.98828 -2.49609,3.14453 -4.60547,2.58203 l -2.97656,-0.79297 c -2.10937,-0.5625 -3.46484,-2.60547 -3.02344,-4.5625 l 0.61328,-2.75781 c 0.44141,-1.95703 2.50391,-3.11328 4.60938,-2.57813 l 2.96875,0.75 c 2.10547,0.53125 3.46094,2.57422 3.02344,4.5625 z m 0,0"
       id="path4552"
       inkscape:connector-curvature="0" />
    <path
       style="fill:#ffffff;fill-opacity:1;fill-rule:nonzero;stroke:none"
       d="m 322.69531,138.64453 c -0.43359,1.98438 -2.5,3.11328 -4.61719,2.51953 l -2.98046,-0.83984 c -2.11719,-0.59375 -3.47657,-2.66406 -3.03907,-4.6211 l 0.61719,-2.75781 c 0.44141,-1.96094 2.50781,-3.08594 4.61719,-2.51953 l 2.97265,0.79688 c 2.11329,0.5664 3.47657,2.63671 3.04297,4.62109 z m 0,0"
       id="path4554"
       inkscape:connector-curvature="0" />
    <path
       style="fill:#ffffff;fill-opacity:1;fill-rule:nonzero;stroke:none"
       d="m 320.25781,149.8125 c -0.43359,1.98828 -2.5039,3.08984 -4.625,2.46094 l -2.99219,-0.88672 c -2.12109,-0.62891 -3.48828,-2.72656 -3.04687,-4.6836 l 0.61719,-2.7539 c 0.4414,-1.96094 2.51172,-3.0625 4.6289,-2.46094 l 2.98047,0.84375 c 2.11719,0.59766 3.48438,2.69531 3.05078,4.68359 z m 0,0"
       id="path4556"
       inkscape:connector-curvature="0" />
    <path
       style="fill:#ffffff;fill-opacity:1;fill-rule:nonzero;stroke:none"
       d="m 317.82031,160.98047 c -0.43359,1.98828 -2.50781,3.0625 -4.63672,2.40234 l -2.99609,-0.93359 c -2.12891,-0.66016 -3.5,-2.78516 -3.05859,-4.74219 l 0.61718,-2.75391 c 0.4375,-1.96093 2.51563,-3.03515 4.63672,-2.40234 l 2.99219,0.89063 c 2.12109,0.63281 3.49219,2.7539 3.05859,4.74218 z m 0,0"
       id="path4558"
       inkscape:connector-curvature="0" />
    <path
       style="fill:#ffffff;fill-opacity:1;fill-rule:nonzero;stroke:none"
       d="m 315.38672,172.15234 c -0.4375,1.98438 -2.51563,3.03516 -4.64844,2.33985 l -3.00781,-0.98047 c -2.12891,-0.69141 -3.50781,-2.84375 -3.06641,-4.80078 l 0.61719,-2.75782 c 0.4375,-1.95703 2.51953,-3.0039 4.64844,-2.33984 l 2.99609,0.9375 c 2.12891,0.66406 3.50391,2.8125 3.07031,4.80078 z m 0,0"
       id="path4560"
       inkscape:connector-curvature="0" />
    <path
       style="fill:#ffffff;fill-opacity:1;fill-rule:nonzero;stroke:none"
       d="m 346.61719,85.15625 c -0.42578,2.019531 -2.46875,3.3125 -4.55469,2.878906 l -2.94141,-0.605468 C 337.03125,87 335.6875,85.035156 336.125,83.046875 l 0.60547,-2.804687 c 0.43359,-1.988282 2.47656,-3.277344 4.55469,-2.878907 l 2.9375,0.566407 c 2.08203,0.398437 3.42578,2.363281 3,4.382812 z m 0,0"
       id="path4562"
       inkscape:connector-curvature="0" />
    <path
       style="fill:#ffffff;fill-opacity:1;fill-rule:nonzero;stroke:none"
       d="m 344.21094,96.511719 c -0.42578,2.019531 -2.47266,3.28125 -4.56641,2.816406 l -2.94922,-0.648437 c -2.09375,-0.464844 -3.4414,-2.453126 -3.00781,-4.445313 l 0.60937,-2.800781 c 0.4336,-1.992188 2.48047,-3.253906 4.57032,-2.820313 l 2.9414,0.609375 c 2.08985,0.433594 3.4336,2.425782 3.00782,4.441406 z m 0,0"
       id="path4564"
       inkscape:connector-curvature="0" />
    <path
       style="fill:#ffffff;fill-opacity:1;fill-rule:nonzero;stroke:none"
       d="m 341.80469,107.86719 c -0.42578,2.02344 -2.47657,3.2539 -4.57422,2.75781 l -2.95703,-0.69531 c -2.10157,-0.4961 -3.45313,-2.51563 -3.01953,-4.50391 l 0.60937,-2.80859 c 0.43359,-1.98828 2.48438,-3.222659 4.57813,-2.757815 l 2.95312,0.660155 c 2.08984,0.46485 3.44141,2.48047 3.01563,4.5 z m 0,0"
       id="path4566"
       inkscape:connector-curvature="0" />
    <path
       style="fill:#ffffff;fill-opacity:1;fill-rule:nonzero;stroke:none"
       d="m 339.40234,119.22266 c -0.42968,2.01953 -2.48437,3.22656 -4.58984,2.69922 l -2.96484,-0.7461 c -2.10157,-0.52734 -3.46094,-2.57422 -3.02735,-4.5625 l 0.60938,-2.80469 c 0.43359,-1.98828 2.48828,-3.19921 4.58984,-2.69921 l 2.95703,0.70312 c 2.09766,0.5 3.45703,2.54297 3.02735,4.56641 z m 0,0"
       id="path4568"
       inkscape:connector-curvature="0" />
    <path
       style="fill:#ffffff;fill-opacity:1;fill-rule:nonzero;stroke:none"
       d="m 336.99609,130.57812 c -0.42968,2.01954 -2.48437,3.19922 -4.59765,2.63672 l -2.97266,-0.78906 c -2.11328,-0.5625 -3.47266,-2.63281 -3.03906,-4.625 L 326.99609,125 c 0.4336,-1.99219 2.49219,-3.17578 4.59766,-2.64062 l 2.96484,0.75 c 2.10938,0.53125 3.46875,2.60156 3.03907,4.625 z m 0,0"
       id="path4570"
       inkscape:connector-curvature="0" />
    <path
       style="fill:#ffffff;fill-opacity:1;fill-rule:nonzero;stroke:none"
       d="m 334.58984,141.93359 c -0.42578,2.01953 -2.49218,3.17188 -4.60547,2.57813 l -2.98046,-0.83985 c -2.11719,-0.59375 -3.48438,-2.6914 -3.05079,-4.67968 l 0.60938,-2.80469 c 0.42969,-1.99219 2.49609,-3.14453 4.60547,-2.57813 l 2.97656,0.79688 c 2.10938,0.56641 3.47656,2.66016 3.04688,4.67969 z m 0,0"
       id="path4572"
       inkscape:connector-curvature="0" />
    <path
       style="fill:#ffffff;fill-opacity:1;fill-rule:nonzero;stroke:none"
       d="m 332.18359,153.28906 c -0.42968,2.01953 -2.49609,3.14844 -4.61718,2.51953 l -2.98829,-0.88672 c -2.12109,-0.6289 -3.49218,-2.7539 -3.0625,-4.74218 l 0.61329,-2.80469 c 0.42968,-1.98828 2.5,-3.11719 4.61718,-2.51953 l 2.98438,0.84375 c 2.11328,0.59765 3.48437,2.72265 3.05469,4.74219 z m 0,0"
       id="path4574"
       inkscape:connector-curvature="0" />
    <path
       style="fill:#ffffff;fill-opacity:1;fill-rule:nonzero;stroke:none"
       d="m 353.60156,110.59766 c -0.41797,2.05468 -2.46484,3.3164 -4.5625,2.82031 l -2.95703,-0.69922 c -2.10156,-0.49609 -3.45703,-2.53906 -3.03125,-4.5625 l 0.60156,-2.85156 c 0.42969,-2.02344 2.47266,-3.28516 4.56641,-2.82031 l 2.95312,0.65625 c 2.09375,0.46875 3.44922,2.51171 3.02735,4.5664 z m 0,0"
       id="path4576"
       inkscape:connector-curvature="0" />
    <path
       style="fill:#ffffff;fill-opacity:1;fill-rule:nonzero;stroke:none"
       d="m 351.23047,122.13672 c -0.42188,2.05469 -2.46875,3.28906 -4.57813,2.76172 l -2.96484,-0.74219 c -2.10547,-0.53125 -3.46484,-2.60156 -3.03906,-4.625 l 0.60156,-2.84766 c 0.42969,-2.02734 2.47656,-3.26171 4.57812,-2.76171 l 2.96094,0.70312 c 2.09766,0.5 3.46094,2.57031 3.03906,4.62109 z m 0,0"
       id="path4578"
       inkscape:connector-curvature="0" />
    <path
       style="fill:#ffffff;fill-opacity:1;fill-rule:nonzero;stroke:none"
       d="m 348.85547,133.67969 c -0.42188,2.05468 -2.47656,3.26172 -4.58594,2.69922 l -2.97266,-0.79297 c -2.11328,-0.5586 -3.47656,-2.65625 -3.05078,-4.6836 l 0.60547,-2.84765 c 0.42578,-2.02344 2.48047,-3.23047 4.58594,-2.69922 l 2.96484,0.75 c 2.10547,0.53125 3.47266,2.63281 3.05078,4.68359 z m 0,0"
       id="path4580"
       inkscape:connector-curvature="0" />
    <path
       style="fill:#ffffff;fill-opacity:1;fill-rule:nonzero;stroke:none"
       d="m 296.15625,192.15234 c -0.68359,3.01953 -3.9375,4.4961 -7.26172,3.29688 l -4.68359,-1.69141 c -3.32813,-1.19922 -5.46485,-4.5625 -4.76953,-7.51172 l 0.97656,-4.15625 c 0.69531,-2.94531 3.94531,-4.42187 7.26172,-3.29687 l 4.66797,1.58984 c 3.3125,1.12891 5.44921,4.4961 4.76562,7.51563 z m 0,0"
       id="path4582"
       inkscape:connector-curvature="0" />
  </g>
</svg>
